<svg width="50" height="50" viewBox="0 0 50 50" fill="none" xmlns="http://www.w3.org/2000/svg">
<path d="M0 3C0 1.34315 1.34315 0 3 0H47C48.6569 0 50 1.34315 50 3V47C50 48.6569 48.6569 50 47 50H3C1.34315 50 0 48.6569 0 47V3Z" fill="#C0C0C0"/>
<path d="M24.2332 42.6266C33.605 42.6266 41.2283 35.0033 41.2283 25.6316C41.2283 16.2598 33.6108 8.63763 24.2332 8.63763C14.8557 8.63763 7.23816 16.2633 7.23816 25.6316C7.23816 34.9998 14.8626 42.6266 24.2332 42.6266ZM27.4379 41.0533C27.5342 40.5397 27.6524 40.0318 27.7927 39.5356C29.0786 34.979 32.0827 31.4879 35.8358 30.1986C36.8584 29.8464 37.9323 29.6661 39.0138 29.6653C39.1611 29.6653 39.3083 29.6653 39.4556 29.6768C38.6995 32.4985 37.1762 35.0554 35.0547 37.0637C32.9333 39.0719 30.2968 40.4529 27.4379 41.0533ZM24.2332 9.88635C31.6989 9.88635 37.968 15.1038 39.5808 22.0918C37.6113 19.9963 35.2336 18.3264 32.5942 17.1848C29.9548 16.0433 27.1095 15.4544 24.2338 15.4544C21.3581 15.4544 18.5129 16.0433 15.8734 17.1848C13.234 18.3264 10.8563 19.9963 8.88688 22.0918C10.4985 15.1038 16.7676 9.88635 24.2332 9.88635ZM8.48456 25.6316C8.48456 25.2234 8.50002 24.8188 8.53094 24.4176C10.3831 22.015 12.7619 20.0695 15.4841 18.7308C18.2064 17.3921 21.1996 16.6959 24.2332 16.6959C27.2669 16.6959 30.2601 17.3921 32.9823 18.7308C35.7046 20.0695 38.0834 22.015 39.9356 24.4176C39.9665 24.8188 39.9823 25.2234 39.9831 25.6316C39.9831 26.5748 39.8986 27.5162 39.7303 28.4444C39.4915 28.4293 39.2527 28.42 39.0138 28.42C37.7948 28.4194 36.5841 28.6212 35.4311 29.0171C31.2919 30.4432 27.9898 34.2474 26.5939 39.197C26.4006 39.8773 26.2458 40.5678 26.1301 41.2655C24.9047 41.415 23.666 41.4197 22.4396 41.2794C22.3217 40.5532 22.1611 39.8347 21.9584 39.1275C20.5671 34.2995 17.3207 30.5476 13.2858 29.0855C12.0733 28.6456 10.7935 28.4204 9.50371 28.42C9.24747 28.42 8.98776 28.4304 8.73152 28.4478C8.5647 27.5184 8.48204 26.5758 8.48456 25.6316ZM9.51066 29.6653C10.6574 29.6655 11.7953 29.866 12.873 30.2577C16.5392 31.5818 19.4923 35.0265 20.7712 39.4718C20.9219 39.9959 21.0483 40.5327 21.1503 41.0765C18.2676 40.4939 15.6047 39.1185 13.4612 37.105C11.3176 35.0915 9.77839 32.5198 9.01674 29.6792C9.1779 29.6711 9.34486 29.6653 9.51066 29.6653Z" fill="white"/>
<path d="M24.2333 42.7577C31.3314 42.7241 37.8301 38.2301 40.3009 31.5586C42.8076 24.7921 40.6673 16.9821 35.1008 12.407C29.5552 7.8492 21.5226 7.25093 15.3787 10.9785C9.26377 14.6888 6.04052 21.9932 7.44345 29.0102C8.83478 35.9668 14.6262 41.4916 21.6339 42.5594C22.4944 42.6886 23.3632 42.7549 24.2333 42.7577C24.2658 42.7546 24.296 42.7396 24.3179 42.7154C24.3399 42.6913 24.352 42.6599 24.352 42.6272C24.352 42.5946 24.3399 42.5632 24.3179 42.5391C24.296 42.5149 24.2658 42.4999 24.2333 42.4968C17.2013 42.4632 10.756 37.975 8.36405 31.3441C5.98371 24.7388 8.05795 17.1908 13.4366 12.6876C18.8929 8.12167 26.8745 7.51181 32.9593 11.2035C38.9884 14.8638 42.1792 22.1022 40.7588 29.0183C39.3675 35.801 33.757 41.1762 26.9232 42.2835C26.0342 42.424 25.1357 42.4953 24.2356 42.4968C24.2031 42.4996 24.1728 42.5144 24.1506 42.5383C24.1285 42.5622 24.116 42.5936 24.1157 42.6262C24.1154 42.6588 24.1273 42.6904 24.1491 42.7147C24.1708 42.739 24.2009 42.7543 24.2333 42.7577Z" fill="white"/>
<path d="M27.5632 41.0881C28.6856 35.3059 33.037 29.5725 39.4556 29.8079L39.3293 29.6421C38.5612 32.4327 37.0436 34.9597 34.9413 36.949C32.8389 38.9383 30.232 40.314 27.4032 40.9269C27.2386 40.9629 27.3082 41.2145 27.4728 41.1785C30.3447 40.5531 32.9909 39.1543 35.125 37.1334C37.2592 35.1124 38.8 32.5464 39.5809 29.7128C39.586 29.6935 39.5866 29.6733 39.5828 29.6537C39.5789 29.6342 39.5706 29.6157 39.5585 29.5998C39.5464 29.584 39.5309 29.571 39.5131 29.5621C39.4952 29.5531 39.4756 29.5484 39.4556 29.5481C32.928 29.3093 28.456 35.1251 27.3117 41.0197C27.2803 41.182 27.5319 41.2527 27.5632 41.0881Z" fill="white"/>
<path d="M24.2334 10.0139C31.4462 10.051 37.7988 15.1027 39.4545 22.1231L39.6725 21.9967C37.6908 19.8894 35.2987 18.2101 32.6434 17.0621C29.9882 15.9142 27.1261 15.322 24.2334 15.322C21.3406 15.322 18.4785 15.9142 15.8233 17.0621C13.168 18.2101 10.7759 19.8894 8.79423 21.9967L9.0122 22.1231C10.6714 15.1038 17.0216 10.051 24.2334 10.0139C24.2658 10.0108 24.296 9.99574 24.3179 9.97162C24.3399 9.9475 24.3521 9.91605 24.3521 9.88343C24.3521 9.85082 24.3399 9.81937 24.3179 9.79525C24.296 9.77113 24.2658 9.75606 24.2334 9.753C18.6112 9.78198 13.3276 12.8046 10.4963 17.6731C9.70409 19.0397 9.11805 20.5157 8.75712 22.0535C8.7507 22.081 8.75326 22.1098 8.76441 22.1358C8.77556 22.1617 8.79472 22.1834 8.81909 22.1976C8.84346 22.2119 8.87175 22.218 8.89982 22.215C8.9279 22.212 8.95428 22.2001 8.9751 22.181C12.052 18.9113 16.0977 16.7161 20.5163 15.9189C24.9348 15.1218 29.4926 15.7647 33.5182 17.7531C35.7523 18.8657 37.7732 20.363 39.4881 22.1764C39.509 22.1955 39.5353 22.2074 39.5634 22.2104C39.5915 22.2133 39.6198 22.2073 39.6441 22.193C39.6685 22.1787 39.6877 22.1571 39.6988 22.1311C39.71 22.1052 39.7125 22.0764 39.7061 22.0489C38.4307 16.6366 34.3333 12.1704 29.0218 10.4858C27.4721 9.99957 25.8576 9.75095 24.2334 9.74836C24.2159 9.74836 24.1987 9.75179 24.1825 9.75847C24.1664 9.76514 24.1518 9.77492 24.1395 9.78724C24.1272 9.79957 24.1174 9.81421 24.1107 9.83031C24.104 9.84642 24.1006 9.86368 24.1006 9.88112C24.1006 9.89855 24.104 9.91581 24.1107 9.93192C24.1174 9.94803 24.1272 9.96266 24.1395 9.97499C24.1518 9.98732 24.1664 9.99709 24.1825 10.0038C24.1987 10.0104 24.2159 10.0139 24.2334 10.0139Z" fill="white"/>
<path d="M8.61447 25.6316C8.61447 25.2397 8.54954 24.7145 8.74201 24.3562C8.88462 24.0918 9.15593 23.846 9.35536 23.6176C11.2374 21.4516 13.5696 19.7226 16.1892 18.5514C18.8087 17.3803 21.6524 16.7952 24.5215 16.837C27.3906 16.8789 30.216 17.5467 32.8003 18.7937C35.3846 20.0408 37.6654 21.8371 39.4835 24.0571C39.9832 24.6646 39.8696 25.5284 39.8394 26.282C39.824 26.6438 39.7965 27.0051 39.7571 27.3661C39.7351 27.5597 39.7733 28.0618 39.6411 28.1928C39.4719 28.3609 39.2516 28.2879 39.0127 28.2879C37.5456 28.29 36.0931 28.5803 34.7379 29.1424C32.5941 30.027 30.7575 31.5331 29.3441 33.3604C27.7105 35.4718 26.6392 37.9912 26.1221 40.6034C26.0826 40.8017 26.1012 41.0266 25.9191 41.1577C25.8113 41.2353 25.402 41.2052 25.2687 41.2145C24.907 41.2388 24.5441 41.2493 24.1811 41.2481C23.7661 41.2481 23.2849 41.2794 22.8779 41.1901C22.6518 41.1403 22.6611 41.1901 22.5301 41.0243C22.3991 40.8585 22.4037 40.3634 22.3573 40.1594C22.0551 38.7924 21.594 37.4655 20.9834 36.2057C19.7811 33.7407 17.9607 31.5412 15.6245 30.078C14.415 29.3161 13.0768 28.781 11.6754 28.4989C11.3137 28.4278 10.9488 28.3748 10.5809 28.34C10.1067 28.2937 9.5884 28.3679 9.12347 28.2948C8.87303 28.2554 8.90201 28.3192 8.8081 28.0884C8.70143 27.8264 8.71534 27.4403 8.69216 27.1516C8.64346 26.6461 8.62259 26.1382 8.61911 25.6293C8.61605 25.5968 8.60098 25.5666 8.57686 25.5447C8.55273 25.5227 8.52129 25.5106 8.48867 25.5106C8.45606 25.5106 8.42461 25.5227 8.40049 25.5447C8.37637 25.5666 8.3613 25.5968 8.35824 25.6293C8.36501 26.5851 8.45111 27.5387 8.61563 28.4803C8.62325 28.508 8.63974 28.5324 8.66257 28.5498C8.68541 28.5672 8.71331 28.5766 8.74201 28.5766C12.2203 28.3609 15.4992 29.7951 17.9178 32.2636C20.3364 34.732 21.7579 37.9518 22.3237 41.3072C22.3315 41.3345 22.3479 41.3585 22.3705 41.3756C22.3931 41.3928 22.4206 41.4021 22.4489 41.4023C23.6758 41.5349 24.9136 41.5306 26.1394 41.3895C26.168 41.389 26.1956 41.3794 26.2184 41.3621C26.2411 41.3448 26.2577 41.3207 26.2658 41.2933C26.8282 37.9483 28.2519 34.7158 30.6369 32.2659C33.0219 29.816 36.2788 28.3679 39.7339 28.5673C39.7624 28.5674 39.7902 28.5581 39.8131 28.541C39.8359 28.5238 39.8524 28.4997 39.8603 28.4722C39.9889 27.7466 40.0702 27.0135 40.1038 26.2774C40.127 25.7046 40.2475 24.8861 40.0516 24.3458C39.9739 24.1301 39.7038 23.8994 39.5496 23.7208C39.3007 23.431 39.0448 23.148 38.782 22.8721C36.8475 20.8169 34.4995 19.1948 31.8927 18.1128C29.2858 17.0308 26.4793 16.5134 23.658 16.5946C20.8367 16.6759 18.0647 17.3541 15.5245 18.5843C12.9842 19.8146 10.7335 21.5692 8.92057 23.7324C8.7652 23.9179 8.48693 24.1579 8.40461 24.3887C8.28171 24.7365 8.35592 25.2721 8.3536 25.6362C8.35719 25.6687 8.37277 25.6986 8.39729 25.7202C8.42181 25.7417 8.4535 25.7534 8.48615 25.7528C8.5188 25.7522 8.55005 25.7395 8.57379 25.717C8.59753 25.6946 8.61204 25.6641 8.61447 25.6316Z" fill="white"/>
<path d="M9.51074 29.7963C15.745 29.867 19.9248 35.4393 21.0193 41.1113L21.1805 40.9513C18.3279 40.3557 15.6947 38.9852 13.5703 36.9904C11.4458 34.9957 9.91242 32.4539 9.13856 29.6444L9.01218 29.8102C9.17914 29.8021 9.34378 29.7974 9.51074 29.7963C9.54321 29.7932 9.57337 29.7782 9.59532 29.754C9.61728 29.7299 9.62944 29.6985 9.62944 29.6658C9.62944 29.6332 9.61728 29.6018 9.59532 29.5777C9.57337 29.5535 9.54321 29.5385 9.51074 29.5354C9.34378 29.5354 9.17914 29.5354 9.01218 29.5493C8.99223 29.5495 8.97259 29.5543 8.95476 29.5633C8.93693 29.5722 8.92138 29.5851 8.9093 29.601C8.89722 29.6169 8.88893 29.6353 8.88506 29.6549C8.88119 29.6745 8.88184 29.6947 8.88696 29.714C9.67275 32.5668 11.2292 35.1481 13.3856 37.1746C15.5419 39.2011 18.2148 40.5944 21.1109 41.2017C21.1331 41.2075 21.1564 41.2074 21.1784 41.2014C21.2005 41.1955 21.2207 41.1838 21.2369 41.1676C21.2531 41.1514 21.2647 41.1313 21.2707 41.1092C21.2767 41.0871 21.2768 41.0638 21.2709 41.0417C20.1544 35.2526 15.8564 29.6073 9.51074 29.5354C9.47827 29.5385 9.4481 29.5535 9.42615 29.5777C9.4042 29.6018 9.39203 29.6332 9.39203 29.6658C9.39203 29.6985 9.4042 29.7299 9.42615 29.754C9.4481 29.7782 9.47827 29.7932 9.51074 29.7963Z" fill="white"/>
<path d="M24.2333 46.7195C28.4042 46.7199 32.4814 45.4834 35.9495 43.1664C39.4176 40.8493 42.1206 37.5559 43.7168 33.7025C45.3129 29.8492 45.7305 25.6091 44.9167 21.5184C44.1029 17.4277 42.0943 13.6702 39.1449 10.7211C30.9256 2.47055 17.5793 2.44505 9.32172 10.6643C1.06418 18.8836 1.04563 32.2299 9.26607 40.4875L9.32172 40.5432C11.2754 42.5075 13.5992 44.0649 16.1588 45.1251C18.7184 46.1852 21.4628 46.7272 24.2333 46.7195ZM10.2041 11.6012C12.9789 8.82564 16.5145 6.93534 20.3638 6.16933C24.213 5.40332 28.2029 5.796 31.829 7.2977C35.455 8.79941 38.5543 11.3427 40.7349 14.6059C42.9154 17.8691 44.0793 21.7057 44.0793 25.6304C44.0793 29.5551 42.9154 33.3917 40.7349 36.6549C38.5543 39.9181 35.455 42.4614 31.829 43.9631C28.2029 45.4648 24.213 45.8575 20.3638 45.0915C16.5145 44.3255 12.9789 42.4352 10.2041 39.6597C6.48369 35.9387 4.39356 30.8924 4.39335 25.6306C4.39313 20.3688 6.48284 15.3224 10.2029 11.6012H10.2041Z" fill="white"/>
<path d="M24.2333 46.8505C32.4816 46.8192 40.1467 41.9275 43.5612 34.3981C45.4627 30.2016 45.9481 25.5006 44.9442 21.0041C43.9403 16.5076 41.5016 12.4594 37.9959 9.47011C31.4694 3.89203 21.933 2.82187 14.3317 6.81614C6.57966 10.8904 2.06247 19.57 3.15351 28.2565C4.30599 37.4161 11.5374 45.0116 20.6611 46.5537C21.8427 46.7516 23.0387 46.8508 24.2368 46.8505C24.2693 46.8474 24.2994 46.8324 24.3214 46.8082C24.3433 46.7841 24.3555 46.7527 24.3555 46.7201C24.3555 46.6874 24.3433 46.656 24.3214 46.6319C24.2994 46.6078 24.2693 46.5927 24.2368 46.5896C19.6164 46.5892 15.1252 45.0647 11.4594 42.2524C7.79349 39.4401 5.15767 35.4971 3.96048 31.0346C1.74479 22.733 4.93325 13.7032 11.8853 8.64574C18.7063 3.68333 28.1348 3.3471 35.2921 7.81326C39.208 10.2527 42.2119 13.9135 43.8398 18.2304C45.4676 22.5473 45.6289 27.2801 44.2986 31.6978C41.9902 39.3501 35.2956 45.1473 27.4009 46.3496C26.3521 46.5039 25.2934 46.5814 24.2333 46.5815C24.1976 46.5815 24.1634 46.5957 24.1382 46.6209C24.113 46.6461 24.0988 46.6803 24.0988 46.716C24.0988 46.7517 24.113 46.7859 24.1382 46.8111C24.1634 46.8363 24.1976 46.8505 24.2333 46.8505Z" fill="white"/>
<path d="M10.2957 11.6939C16.1161 5.9222 25.1122 4.28275 32.5674 7.76108C40.0435 11.251 44.6256 19.2569 43.8638 27.4646C43.1032 35.7233 37.0046 42.7982 28.9511 44.7751C20.9254 46.7461 12.3131 43.3699 7.7646 36.4665C3.31931 29.7232 3.5083 20.6691 8.23302 14.1137C8.8563 13.2544 9.54596 12.4454 10.2957 11.6939C10.3201 11.6695 10.3338 11.6363 10.3338 11.6017C10.3338 11.5672 10.3201 11.534 10.2957 11.5096C10.2712 11.4851 10.2381 11.4714 10.2035 11.4714C10.1689 11.4714 10.1358 11.4851 10.1113 11.5096C4.27701 17.3984 2.61784 26.4733 6.10312 34.0201C9.63246 41.6643 17.8564 46.3438 26.2252 45.5055C34.5384 44.6696 41.6354 38.5327 43.6273 30.4154C45.6123 22.3295 42.2522 13.6661 35.3384 9.02719C28.4606 4.41377 19.126 4.60508 12.4487 9.50488C11.6207 10.1138 10.8393 10.7839 10.1113 11.5096C10.0869 11.534 10.0731 11.5672 10.0731 11.6017C10.0731 11.6363 10.0869 11.6695 10.1113 11.6939C10.1358 11.7183 10.1689 11.7321 10.2035 11.7321C10.2381 11.7321 10.2712 11.7183 10.2957 11.6939Z" fill="white"/>
<path d="M24.2333 31.0299C25.301 31.0299 26.3447 30.7133 27.2325 30.1201C28.1202 29.527 28.8122 28.6838 29.2208 27.6974C29.6293 26.711 29.7363 25.6256 29.528 24.5784C29.3197 23.5312 28.8055 22.5693 28.0505 21.8144C27.2956 21.0594 26.3337 20.5452 25.2865 20.3369C24.2393 20.1286 23.1539 20.2355 22.1675 20.6441C21.181 21.0527 20.3379 21.7446 19.7447 22.6324C19.1516 23.5202 18.835 24.5639 18.835 25.6316C18.835 27.0633 19.4037 28.4364 20.4161 29.4488C21.4285 30.4612 22.8016 31.0299 24.2333 31.0299ZM24.2333 21.4796C25.0548 21.4794 25.858 21.7228 26.5411 22.1791C27.2243 22.6353 27.7568 23.2839 28.0712 24.0429C28.3857 24.8018 28.4681 25.6369 28.3079 26.4427C28.1476 27.2484 27.7521 27.9885 27.1712 28.5694C26.5903 29.1503 25.8502 29.5459 25.0444 29.7061C24.2387 29.8663 23.4035 29.784 22.6446 29.4695C21.8857 29.155 21.2371 28.6225 20.7808 27.9393C20.3245 27.2562 20.0811 26.4531 20.0814 25.6316C20.082 24.5307 20.5196 23.4751 21.2982 22.6968C22.0767 21.9185 23.1324 21.4811 24.2333 21.4808V21.4796Z" fill="white"/>
<path d="M24.2333 31.1609C25.3693 31.1612 26.4779 30.8116 27.4082 30.1597C28.3385 29.5077 29.0454 28.585 29.4328 27.5171C29.8202 26.4492 29.8692 25.2879 29.5733 24.1912C29.2774 23.0944 28.6508 22.1154 27.7788 21.3872C26.9068 20.6591 25.8318 20.2173 24.6998 20.1218C23.5678 20.0262 22.4339 20.2817 21.4522 20.8534C20.4705 21.425 19.6888 22.2852 19.2132 23.3169C18.7377 24.3486 18.5915 25.5017 18.7944 26.6194C19.2582 29.2444 21.5991 31.1192 24.2333 31.1609C24.2658 31.1579 24.296 31.1428 24.3179 31.1187C24.3399 31.0945 24.3521 31.0631 24.3521 31.0305C24.3521 30.9979 24.3399 30.9664 24.3179 30.9423C24.296 30.9182 24.2658 30.9031 24.2333 30.9001C22.0177 30.8641 20.0037 29.4855 19.2628 27.3753C18.9937 26.6088 18.9055 25.7904 19.0051 24.9841C19.1047 24.1778 19.3894 23.4054 19.837 22.7274C20.2846 22.0494 20.8829 21.4841 21.5852 21.0757C22.2875 20.6673 23.0748 20.4268 23.8854 20.3731C24.6961 20.3193 25.5082 20.4538 26.2582 20.766C27.0083 21.0781 27.676 21.5595 28.2091 22.1726C28.7423 22.7856 29.1265 23.5136 29.3316 24.2997C29.5368 25.0858 29.5573 25.9087 29.3917 26.704C28.885 29.147 26.703 30.863 24.2333 30.9001C24.2009 30.9031 24.1707 30.9182 24.1488 30.9423C24.1268 30.9664 24.1146 30.9979 24.1146 31.0305C24.1146 31.0631 24.1268 31.0945 24.1488 31.1187C24.1707 31.1428 24.2009 31.1579 24.2333 31.1609Z" fill="white"/>
<path d="M24.2333 21.6106C25.9122 21.6431 27.4438 22.6669 28.0177 24.2669C28.2283 24.8496 28.3015 25.4731 28.2315 26.0888C28.1615 26.7044 27.9503 27.2956 27.6142 27.8162C27.2782 28.3368 26.8265 28.7727 26.2943 29.09C25.7621 29.4073 25.1638 29.5974 24.5461 29.6455C23.9283 29.6936 23.3078 29.5983 22.7329 29.3672C22.1581 29.136 21.6444 28.7752 21.2319 28.3128C20.8193 27.8505 20.5192 27.2991 20.3548 26.7017C20.1905 26.1043 20.1663 25.477 20.2842 24.8687C20.6436 22.973 22.3341 21.6489 24.2333 21.6106C24.2658 21.6076 24.2959 21.5925 24.3179 21.5684C24.3398 21.5443 24.352 21.5128 24.352 21.4802C24.352 21.4476 24.3398 21.4161 24.3179 21.392C24.2959 21.3679 24.2658 21.3528 24.2333 21.3498C23.3505 21.3499 22.4893 21.6229 21.7675 22.1313C21.0458 22.6397 20.4988 23.3587 20.2014 24.1899C19.904 25.0211 19.8707 25.924 20.1061 26.7748C20.3415 27.6257 20.8341 28.383 21.5165 28.9432C22.1988 29.5033 23.0376 29.8389 23.918 29.9041C24.7984 29.9692 25.6775 29.7607 26.4348 29.307C27.1922 28.8534 27.7909 28.1768 28.1489 27.3699C28.507 26.5629 28.6069 25.665 28.4351 24.7991C28.0432 22.7898 26.2507 21.388 24.2333 21.3498C24.2008 21.3528 24.1706 21.3679 24.1487 21.392C24.1267 21.4161 24.1146 21.4476 24.1146 21.4802C24.1146 21.5128 24.1267 21.5443 24.1487 21.5684C24.1706 21.5925 24.2008 21.6076 24.2333 21.6106Z" fill="white"/>
</svg>
