<svg width="50" height="50" viewBox="0 0 50 50" fill="none" xmlns="http://www.w3.org/2000/svg">
<rect width="50" height="50" rx="5" fill="#C0C0C0"/>
<path d="M15.3398 43.3701L7.44528 34.874L6.32321 33.6621V34.6289L10.748 30.5186H9.78122L17.6757 39.0146L18.7988 40.2236V39.2578L14.373 43.3682C13.7275 43.9678 14.6963 44.9307 15.3398 44.335L19.7656 40.2246C20.0429 39.9668 20.0097 39.5205 19.7656 39.2578L11.8711 30.7617L10.748 29.5537C10.4902 29.2754 10.0439 29.3096 9.78122 29.5537L5.35641 33.6621C5.07809 33.9199 5.11227 34.3652 5.35641 34.6289L13.2509 43.125L14.373 44.3359C14.9736 44.9824 15.9384 44.0146 15.3398 43.3701Z" fill="white"/>
<path d="M18.622 37.8721L12.8027 31.6074L11.9648 30.7051V31.6719L14.6933 29.1328H13.7265L19.5468 35.3984L20.3837 36.3008V35.334L17.6552 37.8682C17.0097 38.4687 17.9775 39.4307 18.622 38.835L21.3505 36.3008C21.6289 36.043 21.5947 35.5967 21.3505 35.334L15.5273 29.0723L14.6894 28.1699C14.4316 27.8926 13.9853 27.9258 13.7226 28.1699L10.9941 30.709C10.7168 30.9668 10.75 31.4131 10.9941 31.6758L16.8134 37.9414L17.6513 38.8428C18.2558 39.4854 19.2207 38.5166 18.622 37.8721Z" fill="white"/>
<path d="M20.6406 33.8076L16.0771 28.8945V29.8613L18.6523 27.4697H17.6855L22.249 32.3818V31.416L19.6728 33.8076C19.0273 34.4072 19.9961 35.3701 20.6396 34.7744L23.2148 32.3818C23.4931 32.124 23.4589 31.6787 23.2148 31.416L18.6523 26.5029C18.3935 26.2246 17.9482 26.2588 17.6855 26.5029L15.1103 28.8945C14.832 29.1523 14.8662 29.5986 15.1103 29.8613L19.6728 34.7744C20.2744 35.4199 21.2392 34.4522 20.6406 33.8076Z" fill="white"/>
<path d="M6.83598 43.4092C6.51273 43.0654 6.1768 42.7256 5.86527 42.375C5.81449 42.3164 5.78129 42.249 5.77641 42.2842C5.78519 42.2109 5.77641 42.3037 5.79984 42.2539C5.84769 42.1631 5.99516 42.0703 6.06937 42.001L8.63285 39.5996C8.74516 39.4941 9.17777 38.9961 9.27445 38.9951C9.33774 39.0796 9.40727 39.1593 9.48246 39.2334L10.1241 39.917C10.1758 39.9717 10.2881 40.0508 10.3194 40.1211C10.3506 40.1914 10.3448 40.1211 10.3321 40.1523C10.3067 40.2119 10.1856 40.29 10.1368 40.332L8.99809 41.3994L7.50883 42.7959L6.99711 43.2764C6.96098 43.3105 6.89945 43.3926 6.85258 43.4121C6.8057 43.4316 6.86332 43.4316 6.83793 43.4121C6.17777 42.8369 5.20707 43.8027 5.87113 44.3789C6.59086 45.0059 7.3643 44.8086 7.99906 44.2139L9.47269 42.8291L11.0108 41.3877C11.5225 40.9062 11.9317 40.2959 11.5752 39.5664C11.3067 39.0186 10.7149 38.5146 10.2871 38.0918C9.64848 37.46 8.84184 37.5527 8.21195 38.1221C7.22172 39.0176 6.26371 39.9492 5.29008 40.8623C4.72465 41.3926 4.12504 42.002 4.54203 42.8555C4.82523 43.4326 5.43851 43.9131 5.87309 44.376C6.47465 45.0195 7.43949 44.0518 6.83598 43.4092Z" fill="white"/>
<path d="M21.8379 29.9141L20.8984 28.9062L20.2617 28.2285C20.1934 28.1553 20.1279 28.0762 20.0547 28.0078C19.9102 27.8721 19.9814 27.8076 20.1074 28.1406L20.0381 28.668C19.9922 28.7705 19.9404 28.7656 20.0215 28.6875C20.0869 28.6279 20.1504 28.5664 20.2168 28.5068L20.9111 27.8555L23.1182 25.7852L28.1699 21.0469L29.0332 20.2373C29.1123 20.1641 29.1982 20.0938 29.2715 20.0137C29.3955 19.8789 29.4453 19.9639 29.1152 20.0879L28.5889 20.0195C28.4678 19.9648 28.5107 19.9375 28.5957 20.0303C28.6807 20.123 28.7432 20.1875 28.8174 20.2666L29.4531 20.9453L30.0898 21.623C30.1582 21.6963 30.2236 21.7754 30.2969 21.8437C30.4404 21.9795 30.3701 22.0439 30.2441 21.7109L30.3125 21.1836C30.3594 21.0811 30.415 21.0859 30.3301 21.1641C30.2646 21.2236 30.2012 21.2852 30.1348 21.3447L29.4414 21.9961L27.2334 24.0664L22.1777 28.8086L21.3145 29.6182C21.2354 29.6914 21.1494 29.7617 21.0762 29.8418C20.9522 29.9766 20.9023 29.8926 21.2324 29.7676L21.7588 29.8369L21.6992 29.8096C20.9033 29.4492 20.208 30.6279 21.0088 30.9902C21.5127 31.2178 21.834 31.0039 22.1807 30.6816L23.0986 29.8203L26.2324 26.8818L29.584 23.7383C30.1631 23.1943 30.7979 22.6758 31.3418 22.0928C31.8652 21.5273 31.4014 21.0283 31.0049 20.6055C30.5293 20.0986 30.0645 19.5771 29.5772 19.083C28.8057 18.3018 28.1123 19.2354 27.5488 19.7607L21.1504 25.7607C20.4668 26.4053 19.752 27.0303 19.0859 27.6973C18.6953 28.0879 18.709 28.5547 19.0762 28.9668C19.5371 29.4785 20.0205 29.9727 20.4912 30.4756L20.8818 30.8867C21.4736 31.5244 22.4395 30.5557 21.8379 29.9141Z" fill="white"/>
<path d="M35.0478 6.53028L42.9423 15.0264L44.0654 16.2344V15.2676L39.6396 19.3779H40.6064L32.7119 10.8818L31.5888 9.67285V10.6445L36.0146 6.53418C36.6601 5.93457 35.6923 4.97168 35.0478 5.56738L30.622 9.67383C30.3447 9.93164 30.3779 10.3779 30.622 10.6406L38.5166 19.1367L39.6396 20.3447C39.8974 20.6231 40.3437 20.5889 40.6064 20.3447L45.0312 16.2344C45.3095 15.9766 45.2753 15.5303 45.0312 15.2676L37.1367 6.77149L36.0146 5.56641C35.414 4.91797 34.4492 5.88574 35.0478 6.53028Z" fill="white"/>
<path d="M31.7656 12.0283L37.5849 18.293L38.4228 19.1953V18.2285L35.6943 20.7676H36.6611L30.8408 14.502L30.0039 13.5996V14.5664L32.7324 12.0322C33.3779 11.4316 32.4101 10.4697 31.7656 11.0654L29.0371 13.6045C28.7588 13.8623 28.7929 14.3086 29.0371 14.5713L34.8564 20.8369L35.6943 21.7393C35.9521 22.0166 36.3984 21.9834 36.6611 21.7393L39.3896 19.2002C39.6679 18.9424 39.6338 18.4961 39.3896 18.2334L33.5703 11.9629L32.7324 11.0615C32.1289 10.415 31.167 11.3838 31.7656 12.0283Z" fill="white"/>
<path d="M29.747 16.0928L34.3105 21.0059V20.0391L31.7275 22.4375H32.6943L28.1308 17.5244V18.4912L30.7138 16.0928C31.3593 15.4932 30.3906 14.5303 29.747 15.126L27.165 17.5244C26.8867 17.7822 26.9209 18.2285 27.165 18.4912L31.7275 23.4043C31.9863 23.6816 32.4316 23.6484 32.6943 23.4043L35.2773 21.0059C35.5547 20.748 35.5214 20.3018 35.2773 20.0391L30.7138 15.126C30.1132 14.4805 29.1484 15.4482 29.747 16.0928Z" fill="white"/>
<path d="M43.5547 6.49121C43.878 6.83496 44.2139 7.1748 44.5254 7.52539C44.5762 7.58398 44.6094 7.65136 44.6143 7.61621C44.6055 7.68945 44.6143 7.59668 44.5908 7.64648C44.543 7.7373 44.3955 7.83008 44.3213 7.89941L41.7598 10.3008C41.6485 10.4062 41.2149 10.9043 41.1182 10.9053C41.0549 10.8208 40.9854 10.7411 40.9102 10.667L40.2686 9.9834C40.2168 9.92871 40.1045 9.84961 40.0733 9.77929C40.042 9.70898 40.0479 9.77929 40.0606 9.74804C40.086 9.68847 40.2071 9.61035 40.2559 9.56836L41.3936 8.50097L42.8828 7.10449L43.3946 6.62402C43.4307 6.58984 43.4922 6.50781 43.5391 6.48828C43.586 6.46875 43.5283 6.46875 43.5537 6.48828C44.2139 7.06347 45.1856 6.09765 44.5205 5.52148C43.8008 4.89453 43.0283 5.0918 42.3926 5.68652L40.918 7.07129L39.3789 8.51269C38.8672 8.99414 38.458 9.60449 38.8145 10.334C39.083 10.8818 39.6748 11.3857 40.1026 11.8086C40.7412 12.4404 41.5479 12.3477 42.1778 11.7783C43.168 10.8828 44.1309 9.95117 45.0996 9.03808C45.6651 8.50781 46.2647 7.89844 45.8477 7.04492C45.5655 6.46777 44.9512 5.9873 44.5166 5.52441C43.9131 4.88281 42.9483 5.84863 43.5547 6.49121Z" fill="white"/>
</svg>
