<svg width="50" height="50" viewBox="0 0 50 50" fill="none" xmlns="http://www.w3.org/2000/svg">
<rect width="50" height="50" rx="5" fill="#C0C0C0"/>
<path d="M22.7128 13.7227L16.1464 20.2891L14.5048 21.9307C14.3017 22.1338 14.0712 22.4688 13.8212 22.6143C13.499 22.8027 13.0693 22.1621 12.8662 21.958L10.913 20.0049L8.84858 17.9404C8.5185 17.6104 8.02338 17.2568 7.77436 16.8662C7.59858 16.5908 7.95307 16.3711 8.13959 16.1826L9.58783 14.7344L13.8271 10.4951L15.6308 8.69141C15.9482 8.37402 16.2519 8.00781 16.5986 7.72363C16.8915 7.48242 17.0742 7.79102 17.2871 8.00391L18.9863 9.70313C20.1865 10.9033 21.4111 12.083 22.5888 13.3057C22.705 13.4258 22.8652 13.5498 22.7128 13.7266C22.1406 14.3896 23.1035 15.3604 23.6796 14.6934C24.2558 14.0264 24.287 13.1309 23.6796 12.4619C23.582 12.3516 23.4667 12.249 23.3613 12.1436L21.5468 10.3291C20.3486 9.13086 19.1855 7.88184 17.9453 6.72754C17.2128 6.04395 16.2607 6.1416 15.5742 6.81543C15.1611 7.21875 14.7578 7.63184 14.3496 8.03906L9.91987 12.4697C8.89545 13.4932 7.84467 14.4961 6.84565 15.5439C6.16205 16.2559 6.20698 17.2129 6.87983 17.9082C7.36811 18.416 7.88178 18.9102 8.38178 19.4102L12.3857 23.4141C13.0693 24.0977 14.0322 24.2832 14.7978 23.5742C15.1162 23.2812 15.414 22.959 15.7206 22.6523L23.4863 14.8828L23.6816 14.6875C24.3027 14.0625 23.3398 13.0996 22.7128 13.7227Z" fill="white"/>
<path d="M41.7559 32.8633L35.1895 39.4297L33.5479 41.0713C33.3447 41.2744 33.1143 41.6094 32.8643 41.7549C32.542 41.9434 32.1123 41.3027 31.9092 41.0986L29.9561 39.1455L27.8887 37.0771C27.5586 36.7471 27.0635 36.3936 26.8145 36.0029C26.6387 35.7275 26.9932 35.5078 27.1797 35.3193L28.6279 33.8711L32.8672 29.6318L34.6738 27.8252C34.9912 27.5078 35.2949 27.1416 35.6416 26.8574C35.9346 26.6162 36.1172 26.9248 36.3252 27.1377L38.0244 28.8369C39.2246 30.0371 40.4492 31.2168 41.627 32.4395C41.7432 32.5596 41.9033 32.6836 41.751 32.8604C41.1787 33.5234 42.1416 34.4941 42.7178 33.8271C43.294 33.1602 43.3252 32.2646 42.7178 31.5957C42.6201 31.4854 42.5049 31.3828 42.3994 31.2773L40.585 29.4629C39.3867 28.2646 38.2236 27.0156 36.9834 25.8613C36.251 25.1777 35.2988 25.2754 34.6123 25.9492C34.1992 26.3525 33.7959 26.7656 33.3877 27.1729L28.958 31.6035C27.9336 32.627 26.8828 33.6299 25.8838 34.6777C25.2051 35.3896 25.2451 36.3467 25.918 37.042C26.4063 37.5498 26.9199 38.0439 27.4199 38.5439L31.4238 42.5479C32.1074 43.2314 33.0703 43.417 33.836 42.708C34.1543 42.415 34.4522 42.0928 34.7588 41.7861L42.5293 34.0234L42.7246 33.8281C43.3457 33.2031 42.3828 32.2402 41.7559 32.8633Z" fill="white"/>
<path d="M13.7696 26.7578L20.336 33.3242L21.9795 34.9609C22.1827 35.1641 22.5176 35.3936 22.6631 35.6445C22.8516 35.9668 22.211 36.3955 22.0069 36.5996L20.0538 38.5527L17.9893 40.625C17.6592 40.9551 17.3057 41.4502 16.9151 41.6992C16.6397 41.875 16.42 41.5205 16.2315 41.334L14.7833 39.8857L10.5469 35.6445L8.74028 33.8379C8.4229 33.5205 8.05669 33.2168 7.77251 32.8701C7.5313 32.5771 7.83989 32.3945 8.05278 32.1807L9.752 30.4824C10.9522 29.2822 12.1319 28.0576 13.3545 26.8799C13.4747 26.7637 13.5987 26.6035 13.7754 26.7559C14.4385 27.3281 15.4092 26.3652 14.7422 25.7891C14.0752 25.2129 13.1797 25.1816 12.5108 25.7891C12.4004 25.8867 12.2979 26.001 12.1924 26.1074L10.378 27.9219C9.17974 29.1211 7.92681 30.2842 6.77251 31.5244C6.08892 32.2568 6.18657 33.209 6.8604 33.8955C7.26372 34.3086 7.67681 34.7119 8.08403 35.1191L12.5147 39.5508C13.5381 40.5742 14.5411 41.626 15.5889 42.625C16.3008 43.3037 17.2579 43.2637 17.9532 42.5908C18.461 42.1025 18.9551 41.5889 19.4551 41.0889L23.459 37.085C24.1426 36.4014 24.3282 35.4385 23.6192 34.6719C23.3262 34.3535 23.004 34.0566 22.6973 33.75L14.9317 25.9814L14.7364 25.7861C14.1153 25.166 13.1485 26.1328 13.7696 26.7578Z" fill="white"/>
<path d="M32.9102 7.71484L39.4766 14.2813L41.1202 15.918C41.3233 16.1211 41.6583 16.3506 41.8038 16.6016C41.9922 16.9238 41.3516 17.3525 41.1475 17.5566L39.1944 19.5098L37.1299 21.582C36.7999 21.9121 36.4463 22.4072 36.0557 22.6563C35.7803 22.832 35.5606 22.4775 35.3721 22.291L33.9239 20.8428L29.6875 16.6016L27.8809 14.7949C27.5635 14.4775 27.1973 14.1738 26.9131 13.8271C26.6719 13.5342 26.9805 13.3516 27.1934 13.1377L28.8926 11.4395C30.0928 10.2393 31.2725 9.01465 32.4952 7.83692C32.6153 7.7207 32.7393 7.56055 32.9161 7.71289C33.5792 8.28516 34.5499 7.32227 33.8829 6.74609C33.2159 6.16992 32.3204 6.13867 31.6514 6.74609C31.5411 6.84375 31.4385 6.95801 31.3331 7.06445L29.5147 8.87988C28.3165 10.0781 27.0674 11.2412 25.9131 12.4814C25.2295 13.2139 25.3272 14.166 26.001 14.8525C26.4043 15.2656 26.8174 15.6689 27.2247 16.0762L31.6553 20.5078C32.6788 21.5313 33.6817 22.583 34.7295 23.582C35.4415 24.2607 36.3985 24.2207 37.0938 23.5479C37.6016 23.0596 38.0958 22.5459 38.5958 22.0459L42.5997 18.042C43.2833 17.3584 43.4688 16.3955 42.7598 15.6289C42.4668 15.3105 42.1446 15.0137 41.8379 14.707L34.0723 6.93848L33.877 6.74317C33.2559 6.12305 32.2891 7.08984 32.9102 7.71484Z" fill="white"/>
<path d="M27.2002 15.7461C25.7763 16.8574 23.6992 16.8389 22.5068 15.416C21.9414 14.7412 20.9785 15.709 21.54 16.3828C23.25 18.4229 26.2012 18.2471 28.167 16.7129C28.4599 16.4834 28.4023 15.9873 28.167 15.7461C27.8828 15.4531 27.4892 15.5195 27.2002 15.7461Z" fill="white"/>
<path d="M22.7021 33.8633C24.126 32.752 26.2031 32.7705 27.3955 34.1934C27.9609 34.8682 28.9238 33.9004 28.3623 33.2266C26.6523 31.1865 23.7011 31.3623 21.7353 32.8965C21.4424 33.126 21.5 33.6221 21.7353 33.8633C22.0195 34.1563 22.4131 34.0898 22.7021 33.8633V33.8633Z" fill="white"/>
<path d="M15.5508 22.4092C16.6621 23.833 16.6436 25.9102 15.2207 27.1025C14.5459 27.668 15.5137 28.6309 16.1875 28.0693C18.2276 26.3594 18.0518 23.4082 16.5176 21.4424C16.2881 21.1494 15.792 21.207 15.5508 21.4424C15.2578 21.7266 15.3243 22.1201 15.5508 22.4092V22.4092Z" fill="white"/>
<path d="M33.8633 26.8096C32.752 25.3857 32.7705 23.3086 34.1934 22.1162C34.8682 21.5508 33.9004 20.5879 33.2266 21.1494C31.1865 22.8594 31.3623 25.8105 32.8965 27.7764C33.126 28.0693 33.6221 28.0117 33.8633 27.7764C34.1563 27.4922 34.0899 27.0986 33.8633 26.8096Z" fill="white"/>
</svg>
