<svg width="50" height="50" viewBox="0 0 50 50" fill="none" xmlns="http://www.w3.org/2000/svg">
<rect width="50" height="50" rx="5" fill="#C0C0C0"/>
<path d="M35.501 7.28223L31.6455 11.1377H32.6172L30.3457 8.87109V9.83789L34.2012 5.98242H33.2344L35.501 8.24902C36.124 8.87207 37.0908 7.90527 36.4678 7.28223L34.2012 5.01563C34.0715 4.89021 33.8982 4.8201 33.7178 4.8201C33.5374 4.8201 33.364 4.89021 33.2344 5.01563L29.3789 8.87109C29.2532 9.00064 29.183 9.17402 29.183 9.35449C29.183 9.53496 29.2532 9.70834 29.3789 9.83789L31.6455 12.1094C31.775 12.235 31.9484 12.3053 32.1289 12.3053C32.3094 12.3053 32.4827 12.235 32.6123 12.1094L36.4678 8.25391C37.0908 7.62598 36.124 6.65918 35.501 7.28223Z" fill="white"/>
<path d="M20.3662 37.749L15.0303 43.085L14.2627 43.8525H15.2344L12.9678 41.5859V42.5527L17.2285 38.292C17.8516 37.6689 16.8848 36.7021 16.2617 37.3252L12.001 41.5859C11.8753 41.7155 11.8051 41.8889 11.8051 42.0693C11.8051 42.2498 11.8753 42.4232 12.001 42.5527L14.2627 44.8242C14.3922 44.9499 14.5656 45.0201 14.7461 45.0201C14.9266 45.0201 15.0999 44.9499 15.2295 44.8242L20.5654 39.4883L21.333 38.7207C21.956 38.0977 20.9892 37.1309 20.3662 37.7539V37.749Z" fill="white"/>
<path d="M14.7382 33.3076C15.4121 33.9736 16.1054 34.626 16.7627 35.3086C16.9394 35.4922 17.1904 35.6865 17.2939 35.9258C17.372 36.1064 17.2148 36.2959 17.0537 36.5059C16.6777 36.9941 16.2148 37.415 15.7763 37.8467C15.1474 38.4648 16.1152 39.4307 16.7431 38.8135C17.29 38.2754 17.8535 37.7471 18.2949 37.1152C18.9082 36.2363 18.7148 35.3897 18.0127 34.6396C17.2714 33.8477 16.4765 33.1035 15.705 32.3408C15.0781 31.7217 14.1113 32.6875 14.7382 33.3076Z" fill="white"/>
<path d="M36.626 16.4111L31.8672 21.1699L24.3164 28.7227L22.5654 30.4736H23.5352L15.918 22.8565L14.8301 21.7686V22.7354L19.5889 17.9766L27.1416 10.4238L28.8926 8.67285H27.9258L35.543 16.29L36.626 17.3828C37.249 18.0059 38.2158 17.0391 37.5928 16.416L29.9756 8.79883L28.8857 7.7041C28.7563 7.57823 28.5829 7.5078 28.4023 7.5078C28.2218 7.5078 28.0484 7.57823 27.9189 7.7041L23.1602 12.4629L15.6074 20.0195L13.8565 21.7705C13.7306 21.8999 13.6602 22.0734 13.6602 22.2539C13.6602 22.4345 13.7306 22.6079 13.8565 22.7373L21.4736 30.3545L22.5635 31.4453C22.693 31.571 22.8664 31.6412 23.0469 31.6412C23.2273 31.6412 23.4007 31.571 23.5303 31.4453L28.2891 26.6865L35.8398 19.1289L37.5977 17.3828C38.2158 16.7549 37.249 15.7881 36.626 16.4111Z" fill="white"/>
<path d="M16.8604 25.209C15.8639 25.8345 15.001 26.6509 14.3213 27.6113C13.8018 28.3486 13.4483 29.2148 13.4053 30.123C13.3526 31.2256 13.835 32.21 14.5049 33.0527C14.7364 33.3457 15.2285 33.29 15.4717 33.0527C15.7647 32.7705 15.7002 32.3691 15.4717 32.0859C14.459 30.8164 14.6719 29.3633 15.6241 28.1348C16.013 27.6505 16.4552 27.2115 16.9424 26.8262C17.136 26.6694 17.3385 26.524 17.5489 26.3906C18.295 25.9268 17.6084 24.7432 16.8584 25.21L16.8604 25.209Z" fill="white"/>
<path d="M21.0938 38.9814C21.8643 38.2178 22.3633 37.21 22.4112 36.1172C22.4629 34.8076 21.7764 33.6377 20.8487 32.7686C20.2061 32.1689 19.2373 33.1338 19.8819 33.7354C20.5576 34.3662 21.0918 35.1562 21.0469 36.1172C21.0118 36.8506 20.6426 37.5068 20.1299 38.0146C19.5039 38.6338 20.4707 39.6006 21.0967 38.9814H21.0938Z" fill="white"/>
<path d="M20.6494 32.5732C19.9843 31.9248 19.2958 31.293 18.6562 30.6201C18.5599 30.5269 18.4771 30.4207 18.4101 30.3047C18.3789 30.2441 18.3759 30.127 18.3642 30.1885C18.4296 29.8525 18.8896 29.6191 19.1201 29.415C19.4521 29.1221 19.7519 28.7783 20.0634 28.4629C20.6826 27.8369 19.7167 26.8691 19.0966 27.4961C18.6787 27.917 18.2617 28.3203 17.8193 28.7109C17.124 29.3184 16.7382 30.1816 17.2538 31.0342C17.5742 31.5645 18.0839 31.9824 18.5234 32.4121L19.6816 33.541C20.3124 34.1553 21.2802 33.1895 20.6484 32.5742L20.6494 32.5732Z" fill="white"/>
<path d="M27.2021 7.9541L36.082 16.834L37.3584 18.1103C37.9814 18.7334 38.9482 17.7666 38.3252 17.1436L29.4453 8.26367L28.1689 6.9873C27.5459 6.36426 26.5791 7.33105 27.2021 7.9541Z" fill="white"/>
<path d="M13.1396 22.0166L22.0195 30.8965L23.2959 32.1728C23.9189 32.7959 24.8857 31.8291 24.2627 31.2061L15.3828 22.3262L14.1064 21.0498C13.4834 20.4268 12.5166 21.3936 13.1396 22.0166Z" fill="white"/>
</svg>
