<svg width="50" height="50" viewBox="0 0 50 50" fill="none" xmlns="http://www.w3.org/2000/svg">
<rect width="50" height="50" rx="5" fill="#C0C0C0"/>
<path d="M12.0606 31.8115C12.086 29.2783 13.668 26.9141 16.0821 26.0498C17.2729 25.6257 18.5649 25.5754 19.7851 25.9056C21.0054 26.2358 22.0957 26.9307 22.9102 27.8975C24.5704 29.8682 24.7588 32.7803 23.4366 34.9736C22.1309 37.1387 19.5196 38.3252 17.0303 37.8281C15.6374 37.5461 14.3837 36.7942 13.479 35.6982C12.5743 34.6022 12.0735 33.2287 12.0606 31.8076C12.0518 30.9287 10.6846 30.9287 10.6934 31.8076C10.7065 33.3491 11.1884 34.8501 12.075 36.1111C12.9617 37.3721 14.2111 38.3334 15.6573 38.8672C18.5694 39.9414 21.9981 38.9912 23.958 36.5918C25.9454 34.1592 26.2481 30.6631 24.6163 27.9561C22.9844 25.249 19.8135 23.8779 16.7315 24.4609C13.2393 25.123 10.7286 28.2979 10.6934 31.8125C10.6846 32.6914 12.0518 32.6924 12.0606 31.8115Z" fill="white"/>
<path d="M30.4199 12.7441C30.4199 12.3385 30.5402 11.942 30.7655 11.6048C30.9909 11.2675 31.3112 11.0047 31.6859 10.8495C32.0606 10.6943 32.473 10.6536 32.8708 10.7328C33.2686 10.8119 33.634 11.0072 33.9208 11.294C34.2076 11.5808 34.403 11.9462 34.4821 12.3441C34.5612 12.7419 34.5206 13.1542 34.3654 13.5289C34.2102 13.9037 33.9473 14.224 33.6101 14.4493C33.2728 14.6746 32.8763 14.7949 32.4707 14.7949C31.3291 14.7949 30.4473 13.8643 30.4199 12.7441C30.3984 11.8652 29.0313 11.8652 29.0527 12.7441C29.0612 13.4457 29.2819 14.1282 29.6858 14.7019C30.0897 15.2756 30.6578 15.7135 31.3154 15.958C31.8109 16.1377 32.3412 16.2005 32.8649 16.1413C33.3886 16.0821 33.8915 15.9026 34.3344 15.6168C34.7772 15.331 35.148 14.9467 35.4176 14.4938C35.6873 14.041 35.8486 13.5319 35.889 13.0064C35.9293 12.4809 35.8475 11.9532 35.6501 11.4646C35.4527 10.9759 35.1449 10.5395 34.7509 10.1895C34.3568 9.83948 33.8872 9.58534 33.3786 9.44692C32.8701 9.30851 32.3364 9.28958 31.8193 9.3916C30.2051 9.68457 29.0918 11.1426 29.0527 12.7441C29.0313 13.624 30.3984 13.624 30.4199 12.7441Z" fill="white"/>
<path d="M37.2558 28.3691C37.2561 28.1017 37.3349 27.8402 37.4824 27.617C37.6298 27.3939 37.8395 27.2189 38.0854 27.1137C38.3313 27.0086 38.6027 26.9778 38.8659 27.0254C39.1291 27.0729 39.3726 27.1966 39.5662 27.3811C39.7598 27.5656 39.8951 27.8029 39.9552 28.0635C40.0153 28.3241 39.9977 28.5966 39.9044 28.8473C39.8112 29.098 39.6465 29.3159 39.4307 29.4739C39.2149 29.6319 38.9575 29.7231 38.6904 29.7363C37.8994 29.7783 37.2812 29.1416 37.2558 28.3691C37.2275 27.4902 35.8603 27.4902 35.8886 28.3691C35.9365 29.8545 37.1025 31.1035 38.623 31.1035C39.3482 31.1035 40.0437 30.8154 40.5565 30.3026C41.0693 29.7898 41.3574 29.0943 41.3574 28.3691C41.3574 27.6439 41.0693 26.9484 40.5565 26.4356C40.0437 25.9229 39.3482 25.6348 38.623 25.6348C37.1025 25.6348 35.9365 26.8838 35.8886 28.3691C35.8603 29.249 37.2275 29.248 37.2558 28.3691Z" fill="white"/>
<path d="M17.2119 21.9102L17.7002 19.0293L17.041 19.5313H19.2383L18.5791 19.0293L19.2138 21.9102C19.4033 22.7695 20.7217 22.4053 20.5322 21.5469L19.8974 18.666C19.8565 18.5224 19.7702 18.3958 19.6514 18.3054C19.5325 18.2149 19.3876 18.1653 19.2383 18.1641H17.041C16.7666 18.1641 16.4316 18.374 16.3818 18.666L15.8935 21.5469C15.748 22.4072 17.0654 22.7773 17.2119 21.9102Z" fill="white"/>
<path d="M12.4531 23.7305L11.4854 20.9736L11.1709 21.7451L13.0938 20.6807L12.2647 20.5742L14.2178 22.7871C14.8037 23.4482 15.7647 22.4785 15.1846 21.8203L13.2315 19.6074C13.0293 19.3779 12.6573 19.3604 12.4033 19.501L10.4805 20.5645C10.2324 20.7022 10.0694 21.0586 10.167 21.3369L11.1328 24.0967C11.4258 24.9209 12.7442 24.5664 12.4512 23.7334L12.4531 23.7305Z" fill="white"/>
<path d="M26.2529 26.0059L28.9961 25L28.2226 24.6856L29.3134 26.5938L29.4199 25.7647L27.2343 27.7461C26.581 28.3379 27.5507 29.3027 28.2011 28.7129L30.3867 26.7315C30.4923 26.6239 30.5599 26.4849 30.5793 26.3354C30.5987 26.1859 30.5688 26.0342 30.4941 25.9033L29.4043 23.9961C29.2646 23.752 28.9111 23.5791 28.6318 23.6816L25.8886 24.6875C25.0693 24.9883 25.4238 26.3106 26.2529 26.0059Z" fill="white"/>
<path d="M22.294 22.7842L24.2071 20.5762L23.378 20.6826L25.2559 21.8232L24.9424 21.0508L23.9893 23.8428C23.7042 24.6777 25.0245 25.0361 25.3077 24.2061L26.2608 21.415C26.3585 21.127 26.1944 20.793 25.9463 20.6426L24.0684 19.502C23.8253 19.3545 23.4336 19.3848 23.2403 19.6094L21.3272 21.8174C20.754 22.4805 21.7178 23.4512 22.294 22.7842Z" fill="white"/>
<path d="M27.2705 35.8516L29.5039 37.7354L29.3945 36.9063L28.2812 38.7998L29.0537 38.4854L26.249 37.5684C25.4111 37.2949 25.0518 38.6143 25.8857 38.8867L28.6894 39.8037C28.8349 39.8424 28.989 39.8326 29.1283 39.7758C29.2677 39.7191 29.3848 39.6185 29.4619 39.4893L30.5781 37.5977C30.7207 37.3555 30.6992 36.9619 30.4707 36.7695L28.2373 34.8857C27.5693 34.3213 26.5967 35.2842 27.2705 35.8525V35.8516Z" fill="white"/>
<path d="M28.1065 30.8174L30.9727 31.3838L30.4688 30.7246L30.4092 32.9209L30.9112 32.2617L28.0137 32.8184C27.1514 32.9834 27.5167 34.3018 28.378 34.1367L31.2745 33.5801C31.5723 33.5234 31.7686 33.2041 31.7764 32.9209L31.836 30.7246C31.8438 30.4443 31.6202 30.1221 31.334 30.0654L28.4678 29.499C27.6085 29.3291 27.2403 30.6465 28.1045 30.8174H28.1065Z" fill="white"/>
<path d="M19.2022 41.6436L18.7139 44.5244L19.3731 44.0225H17.1758L17.835 44.5244L17.2002 41.6436C17.0108 40.7842 15.6924 41.1475 15.8818 42.0068L16.5166 44.8877C16.5577 45.0313 16.644 45.1577 16.7628 45.2482C16.8816 45.3386 17.0265 45.3882 17.1758 45.3897H19.3731C19.6475 45.3897 19.9834 45.1787 20.0322 44.8877L20.5205 42.0068C20.666 41.1465 19.3486 40.7764 19.2022 41.6436Z" fill="white"/>
<path d="M23.9609 39.8203L24.9287 42.5781L25.2431 41.8066L23.3212 42.8711L24.1494 42.9785L22.1962 40.7656C21.6103 40.1035 20.6494 41.0742 21.2294 41.7324L23.1826 43.9453C23.3847 44.1748 23.7568 44.1924 24.0107 44.0518L25.9335 42.9883C26.1816 42.8506 26.3447 42.4932 26.247 42.2158L25.2792 39.4531C24.9863 38.6279 23.6679 38.9834 23.9609 39.8164V39.8203Z" fill="white"/>
<path d="M10.1621 37.5469L7.42188 38.5537L8.19336 38.8672L7.09961 36.96L6.99317 37.793L9.17969 35.8076C9.83301 35.2158 8.86328 34.251 8.21289 34.8408L6.02637 36.8223C5.92092 36.9299 5.85339 37.0689 5.83401 37.2183C5.81463 37.3678 5.84444 37.5194 5.91895 37.6504L7.00977 39.5576C7.14942 39.8018 7.49805 39.9736 7.78223 39.8721L10.5254 38.8672C11.3447 38.5674 10.9902 37.2451 10.1621 37.5488V37.5469Z" fill="white"/>
<path d="M14.1202 40.7686L12.2071 42.9775L13.0362 42.8711L11.1582 41.7305L11.4717 42.502L12.4248 39.7109C12.71 38.876 11.3897 38.5176 11.1065 39.3467L10.1563 42.1387C10.0586 42.4268 10.2227 42.7607 10.4707 42.9111L12.3487 44.0518C12.5918 44.1992 12.9834 44.1689 13.1768 43.9443L15.0899 41.7354C15.6631 41.0732 14.6993 40.1025 14.1231 40.7686H14.1202Z" fill="white"/>
<path d="M9.14351 27.7022L6.91011 25.8184L7.01656 26.6465L8.13277 24.7539L7.36031 25.0684L10.165 25.9844C11.0029 26.2588 11.3623 24.9395 10.5283 24.667L7.72456 23.75C7.57913 23.7114 7.42506 23.7211 7.28568 23.7779C7.1463 23.8346 7.0292 23.9352 6.9521 24.0645L5.83589 25.957C5.69331 26.1992 5.7148 26.5928 5.94331 26.7852L8.17671 28.669C8.84468 29.2334 9.81734 28.2705 9.14351 27.7022Z" fill="white"/>
<path d="M8.30757 32.7363L5.44136 32.1699L5.94331 32.8291L6.00288 30.6328L5.50093 31.292L8.39839 30.7353C9.26167 30.5703 8.89546 29.2519 8.03511 29.417L5.13765 29.9736C4.84468 30.0303 4.64351 30.3486 4.6357 30.6328L4.57613 32.8291C4.56831 33.1094 4.79195 33.4316 5.07808 33.4883L7.94429 34.0547C8.80366 34.2246 9.17183 32.9072 8.30757 32.7363Z" fill="white"/>
<path d="M10.8838 25.7276L12.251 24.458C12.8974 23.8584 11.9287 22.8955 11.2842 23.4912L9.91697 24.7608C9.27049 25.3604 10.2392 26.3233 10.8838 25.7276Z" fill="white"/>
<path d="M25.1416 40.083L26.5088 38.7158C27.1318 38.0928 26.165 37.126 25.542 37.749L24.1748 39.1162C23.5517 39.7393 24.5185 40.7061 25.1416 40.083Z" fill="white"/>
<path d="M8.91115 30.1133L9.39943 28.3555C9.63576 27.5068 8.31642 27.1445 8.08107 27.9922L7.59279 29.75C7.35646 30.5986 8.67579 30.9609 8.91115 30.1133Z" fill="white"/>
<path d="M28.4423 35.2891L28.8329 33.7266C29.0468 32.873 27.7285 32.5088 27.5146 33.3633L27.124 34.9258C26.9101 35.7793 28.2285 36.1436 28.4423 35.2891Z" fill="white"/>
<path d="M15.0742 22.9736L16.6367 22.4854C17.4736 22.2236 17.1162 20.9033 16.2734 21.167L14.7109 21.6553C13.874 21.917 14.2314 23.2373 15.0742 22.9736Z" fill="white"/>
<path d="M27.0263 28.4531L27.6123 30.3086C27.8759 31.1445 29.1962 30.7881 28.9306 29.9453L28.3447 28.0899C28.081 27.2539 26.7607 27.6104 27.0263 28.4531Z" fill="white"/>
<path d="M24.1748 24.5557L25.4443 25.8252C26.0674 26.4482 27.0342 25.4814 26.4111 24.8584L25.1416 23.5889C24.5185 22.9658 23.5517 23.9326 24.1748 24.5557Z" fill="white"/>
<path d="M19.6914 22.3877L21.4492 22.876C22.2978 23.1123 22.6601 21.793 21.8124 21.5576L20.0546 21.0693C19.206 20.833 18.8437 22.1523 19.6914 22.3877Z" fill="white"/>
<path d="M20.0546 42.4072L21.7148 41.919C22.5576 41.6709 22.1982 40.3516 21.3515 40.6006L19.6914 41.0889C18.8486 41.3369 19.208 42.6563 20.0546 42.4072Z" fill="white"/>
<path d="M14.6133 41.9189L16.1758 42.4072C17.0176 42.6699 17.378 41.3506 16.5391 41.0889L14.9766 40.6006C14.1348 40.3379 13.7745 41.6572 14.6133 41.9189Z" fill="white"/>
<path d="M9.91693 38.7158L11.1865 39.8877C11.3165 40.0124 11.4897 40.0821 11.6699 40.0821C11.85 40.0821 12.0232 40.0124 12.1533 39.8877C12.4072 39.6338 12.4257 39.1719 12.1533 38.9209L10.8837 37.749C10.7537 37.6243 10.5805 37.5546 10.4003 37.5546C10.2202 37.5546 10.0469 37.6243 9.91693 37.749C9.66303 38.0029 9.64447 38.4648 9.91693 38.7158Z" fill="white"/>
<path d="M7.49507 33.6289L8.08101 35.4844C8.34468 36.3203 9.66499 35.9639 9.39937 35.1211L8.81343 33.2656C8.54976 32.4297 7.22944 32.7861 7.49507 33.6289Z" fill="white"/>
<path d="M31.5674 7.65234L32.3487 5.50391L31.6895 6.00586H33.3497L32.6905 5.50391L33.3741 7.65234C33.6397 8.48731 34.96 8.13086 34.6924 7.28906L34.0088 5.14062C33.9664 4.99786 33.8797 4.87229 33.7612 4.78206C33.6427 4.69183 33.4986 4.64161 33.3497 4.63867H31.6895C31.5407 4.64206 31.3968 4.69245 31.2784 4.78261C31.16 4.87278 31.0732 4.9981 31.0303 5.14062L30.2491 7.28906C29.9483 8.11719 31.2686 8.47461 31.5674 7.65234Z" fill="white"/>
<path d="M35.4414 8.50586L37.5088 7.52929L36.6807 7.42187L37.8604 8.59375L37.753 7.76562L36.7266 9.76562C36.3272 10.5469 37.5079 11.2402 37.9073 10.4561L38.9336 8.44824C39.0066 8.3169 39.0356 8.16569 39.0164 8.0167C38.9973 7.8677 38.931 7.72874 38.8272 7.62011L37.6475 6.44824C37.4161 6.21875 37.0977 6.20898 36.8194 6.34082L34.752 7.32422C33.9571 7.69922 34.6543 8.8789 35.4414 8.50488V8.50586Z" fill="white"/>
<path d="M33.8516 8.22754L34.7793 8.56933C35.1152 8.69336 35.543 8.43066 35.6201 8.09179C35.708 7.70117 35.5029 7.38379 35.1426 7.25097L34.2148 6.90918C33.8789 6.78515 33.4512 7.04785 33.374 7.38672C33.2861 7.77734 33.4912 8.09472 33.8516 8.22754Z" fill="white"/>
<path d="M36.7432 10.4355L36.9873 11.2656C37.085 11.6084 37.4756 11.8584 37.8281 11.7432C38.0014 11.6926 38.1482 11.5765 38.2373 11.4195C38.3265 11.2626 38.351 11.0771 38.3057 10.9023L38.0615 10.0723C37.9639 9.72949 37.5733 9.47949 37.2207 9.59473C37.0474 9.64531 36.9007 9.76139 36.8115 9.91835C36.7224 10.0753 36.6979 10.2608 36.7432 10.4355Z" fill="white"/>
<path d="M37.6953 11.8818L39.833 12.6924L39.331 12.0332L39.3086 13.6934L39.8105 13.0342L37.6523 13.6885C36.8134 13.9434 37.1709 15.2627 38.0166 15.0068L40.1738 14.3525C40.3166 14.3101 40.4421 14.2234 40.5324 14.1049C40.6226 13.9864 40.6728 13.8423 40.6757 13.6934L40.6982 12.0332C40.6982 11.71 40.4785 11.4815 40.1963 11.374L38.0586 10.5635C37.2353 10.252 36.8789 11.5723 37.6953 11.8818Z" fill="white"/>
<path d="M36.7823 15.75L37.7305 17.8301L37.837 17.002L36.6534 18.1641L37.4815 18.0576L35.4883 17.0049C34.7071 16.5937 34.0235 17.7734 34.7979 18.1855L36.7911 19.2383C36.9226 19.3113 37.0741 19.3403 37.2233 19.3209C37.3725 19.3016 37.5116 19.235 37.6202 19.1309L38.8038 17.9687C39.0381 17.7383 39.0381 17.4189 38.9112 17.1406L37.9629 15.0605C37.5987 14.2607 36.42 14.9551 36.7823 15.75Z" fill="white"/>
<path d="M37.2519 14.0625L36.7891 14.9268C36.6211 15.2422 36.6992 15.6855 37.0342 15.8623C37.3516 16.0303 37.79 15.9541 37.9697 15.6172L38.4316 14.7519C38.6006 14.4375 38.5215 13.9941 38.1865 13.8174C37.8691 13.6494 37.4316 13.7256 37.2519 14.0625Z" fill="white"/>
<path d="M34.8281 16.9678L33.9844 17.2519C33.6465 17.3672 33.3887 17.7275 33.5078 18.0928C33.6162 18.4287 33.9854 18.6934 34.3486 18.5703L35.1885 18.2861C35.5264 18.1719 35.7842 17.8105 35.666 17.4453C35.5576 17.1094 35.1875 16.8447 34.8252 16.9678H34.8281Z" fill="white"/>
<path d="M33.3984 17.8809L32.6171 20.0293L33.2763 19.5274H31.6162L32.2753 20.0293L31.5917 17.8809C31.3261 17.0459 30.0058 17.4024 30.2734 18.2441L30.957 20.3926C30.9993 20.5354 31.086 20.6611 31.2045 20.7513C31.323 20.8416 31.4672 20.8917 31.6162 20.8945H33.2763C33.5966 20.8945 33.831 20.6787 33.9355 20.3926L34.7167 18.2441C35.0175 17.416 33.6972 17.0596 33.3984 17.8809Z" fill="white"/>
<path d="M29.5205 17.0273L27.4541 18.0039L28.2822 18.1113L27.1026 16.9395L27.21 17.7686L28.2363 15.7607C28.6358 14.9795 27.4551 14.2861 27.0557 15.0703L26.0293 17.0781C25.9564 17.2095 25.9274 17.3607 25.9465 17.5097C25.9657 17.6587 26.032 17.7976 26.1358 17.9063L27.3154 19.0781C27.5469 19.3066 27.8652 19.3164 28.1436 19.1846L30.2109 18.208C31.0059 17.833 30.3086 16.6533 29.5205 17.0273Z" fill="white"/>
<path d="M30.9922 17.2607L30.1836 16.9678C29.8477 16.8447 29.4199 17.1055 29.3428 17.4453C29.2549 17.8359 29.46 18.1543 29.8203 18.2861L30.6289 18.5791C30.9648 18.7022 31.3926 18.4414 31.4697 18.1016C31.5576 17.7109 31.3525 17.3926 30.9922 17.2607Z" fill="white"/>
<path d="M28.2227 15.0977L27.957 14.2188C27.8535 13.877 27.4736 13.625 27.1162 13.7412C26.7588 13.8574 26.5303 14.2158 26.6387 14.582L26.9043 15.4609C27.0078 15.8027 27.3877 16.0547 27.7451 15.9385C28.1025 15.8223 28.3311 15.4639 28.2227 15.0977Z" fill="white"/>
<path d="M27.2705 13.6514L25.1328 12.8408L25.6348 13.5L25.6572 11.8398L25.1553 12.5L27.3125 11.8457C28.1523 11.5908 27.7949 10.2715 26.9492 10.5273L24.792 11.1816C24.6491 11.2239 24.5235 11.3106 24.4332 11.4292C24.343 11.5477 24.2928 11.6919 24.29 11.8408L24.2676 13.501C24.2676 13.8242 24.4873 14.0537 24.7695 14.1602L26.9072 14.9707C27.7305 15.2832 28.0869 13.9619 27.2705 13.6523V13.6514Z" fill="white"/>
<path d="M28.1806 9.7832L27.2324 7.70312L27.1249 8.53125L28.3095 7.36816L27.4814 7.47461L29.4745 8.52832C30.2558 8.93945 30.9394 7.75976 30.165 7.34863L28.1718 6.29492C28.0405 6.222 27.8893 6.193 27.7403 6.21215C27.5913 6.2313 27.4523 6.2976 27.3437 6.40137L26.1581 7.56445C25.9247 7.79492 25.9247 8.11523 26.0517 8.39355L26.9999 10.4736C27.3642 11.2725 28.5429 10.5791 28.1806 9.7832Z" fill="white"/>
<path d="M27.8565 11.3633L28.2422 10.4492C28.3819 10.1182 28.0928 9.68261 27.7647 9.60742C27.3643 9.5166 27.0733 9.73144 26.9239 10.085L26.5381 11.0029C26.3994 11.333 26.6875 11.7685 27.0157 11.8437C27.416 11.9346 27.7071 11.7207 27.8565 11.3662V11.3633Z" fill="white"/>
<path d="M30.1415 8.51367L30.9921 8.22754C31.33 8.11328 31.5878 7.75196 31.4697 7.38672C31.3613 7.05078 30.9912 6.78711 30.6289 6.90918L29.7783 7.19531C29.4404 7.30957 29.1826 7.67188 29.3007 8.03614C29.4091 8.37305 29.7783 8.63574 30.1415 8.51367Z" fill="white"/>
<path d="M38.0127 24.0586L38.501 22.4961L37.8418 22.998H39.4043L38.7451 22.4961L39.2334 24.0586C39.4951 24.8955 40.8154 24.5381 40.5517 23.6953L40.0635 22.1328C40.0212 21.99 39.9345 21.8643 39.8159 21.7741C39.6974 21.6838 39.5532 21.6336 39.4043 21.6309H37.8418C37.6928 21.6335 37.5485 21.6836 37.43 21.7739C37.3114 21.8641 37.2248 21.9899 37.1826 22.1328L36.6943 23.6953C36.4316 24.5371 37.751 24.8975 38.0127 24.0586Z" fill="white"/>
<path d="M41.2187 24.9473L42.6455 24.1445L41.8174 24.0371L42.955 25.1113L42.8476 24.2822L42.1328 25.7549C41.75 26.543 42.9287 27.2373 43.3134 26.4453L44.0283 24.9727C44.1592 24.7041 44.1533 24.3623 43.9218 24.1445L42.7841 23.0703C42.6754 22.9665 42.5362 22.9001 42.3871 22.881C42.2379 22.8618 42.0865 22.8909 41.955 22.9639L40.5273 23.7666C39.7607 24.1983 40.4492 25.3799 41.2168 24.9473H41.2187Z" fill="white"/>
<path d="M39.7461 24.5645L40.4297 24.9551C40.7402 25.1328 41.1914 25.0391 41.3643 24.71C41.4528 24.5529 41.4767 24.3675 41.4309 24.1931C41.3852 24.0186 41.2734 23.8688 41.1192 23.7754L40.4356 23.3848C40.125 23.207 39.6738 23.3008 39.501 23.6299C39.4125 23.787 39.3886 23.9724 39.4343 24.1468C39.4801 24.3212 39.5919 24.471 39.7461 24.5645Z" fill="white"/>
<path d="M35.0029 25.6514L34.3007 24.1719L34.1933 25.001L35.3408 23.9395L34.5127 24.0469L35.9316 24.8623C36.6963 25.3018 37.3857 24.1211 36.622 23.6816L35.2031 22.8662C35.0716 22.7929 34.9201 22.7637 34.7708 22.7831C34.6215 22.8024 34.4824 22.8692 34.374 22.9736L33.2275 24.0342C32.9902 24.2529 32.9922 24.5928 33.1201 24.8623L33.8222 26.3408C34.1992 27.1357 35.3789 26.4385 35.0029 25.6514Z" fill="white"/>
<path d="M42.9257 27.7637L44.4882 28.2422L43.9863 27.583L43.996 29.1455L44.498 28.4863L42.9355 28.9844C42.1005 29.25 42.458 30.5703 43.2998 30.3027L44.8623 29.8047C45.005 29.7622 45.1306 29.6755 45.2208 29.557C45.3111 29.4385 45.3613 29.2944 45.3642 29.1455L45.3544 27.583C45.3518 27.434 45.3017 27.2898 45.2114 27.1712C45.1212 27.0526 44.9954 26.966 44.8525 26.9238L43.29 26.4453C42.4462 26.1865 42.0859 27.5059 42.9257 27.7637Z" fill="white"/>
<path d="M42.0899 31.0723L42.8535 32.5195L42.96 31.6904L41.8555 32.7988L42.6846 32.6924L41.2334 31.9336C40.4522 31.5264 39.7627 32.7061 40.544 33.1143L41.9922 33.873C42.1236 33.946 42.2749 33.9749 42.4239 33.9556C42.573 33.9363 42.7119 33.8697 42.8203 33.7656L43.9248 32.6602C44.0286 32.5524 44.0951 32.4142 44.1146 32.2659C44.1341 32.1176 44.1056 31.9669 44.0332 31.8359L43.2734 30.3867C42.8643 29.6055 41.6836 30.2969 42.0928 31.0762L42.0899 31.0723Z" fill="white"/>
<path d="M39.2168 32.7441L38.7696 34.3184L39.4287 33.8174L37.8662 33.8584L38.5254 34.3603L37.9971 32.8125C37.7139 31.9844 36.3926 32.3398 36.6787 33.1758L37.2071 34.7236C37.2496 34.8663 37.3364 34.9918 37.4549 35.082C37.5733 35.1722 37.7174 35.2225 37.8662 35.2256L39.4287 35.1846C39.5776 35.1815 39.7216 35.1312 39.8401 35.041C39.9586 34.9508 40.0453 34.8253 40.0879 34.6826L40.5352 33.1055C40.7754 32.2578 39.461 31.8955 39.2168 32.7422V32.7441Z" fill="white"/>
<path d="M35.9072 31.9961L34.4257 32.6914L35.2539 32.7978L34.1982 31.6455L34.3056 32.4746L35.1279 31.0586C35.5713 30.2969 34.3896 29.6074 33.9472 30.3691L33.125 31.7842C33.0516 31.9154 33.0223 32.0667 33.0415 32.2158C33.0607 32.3649 33.1272 32.5039 33.2314 32.6123L34.2871 33.7646C34.5048 34.0029 34.8466 33.998 35.1152 33.8721L36.5976 33.1768C37.3935 32.8037 36.7002 31.624 35.9072 31.9961Z" fill="white"/>
<path d="M34.1543 29.0176L32.6172 28.4502L33.1191 29.1094L33.1982 27.5469L32.6963 28.2061L34.2822 27.7979C35.1338 27.5791 34.7705 26.2598 33.9189 26.4795L32.333 26.8877C32.1908 26.9311 32.0661 27.0185 31.9768 27.1373C31.8874 27.2561 31.8381 27.4002 31.8359 27.5488L31.7568 29.1113C31.7412 29.4297 31.9844 29.6699 32.2588 29.7705L33.789 30.3359C34.6152 30.6406 34.9717 29.3203 34.1523 29.0176H34.1543Z" fill="white"/>
<path d="M36.1328 33.1582L36.8164 33.5488C37.127 33.7266 37.5781 33.6328 37.751 33.3037C37.8395 33.1466 37.8634 32.9612 37.8176 32.7868C37.7719 32.6124 37.6601 32.4626 37.5059 32.3691L36.8223 31.9785C36.5117 31.8008 36.0606 31.8945 35.8877 32.2236C35.7992 32.3807 35.7753 32.5661 35.8211 32.7405C35.8668 32.915 35.9786 33.0648 36.1328 33.1582Z" fill="white"/>
<path d="M40.4297 33.4512L41.1133 33.1582C41.2673 33.0684 41.3802 32.9219 41.4277 32.75C41.4748 32.5723 41.4499 32.3831 41.3584 32.2236C41.2685 32.0696 41.122 31.9567 40.9502 31.9092C40.772 31.8713 40.5861 31.8958 40.4238 31.9785L39.7402 32.2715C39.5862 32.3613 39.4733 32.5078 39.4258 32.6797C39.3787 32.8574 39.4036 33.0466 39.4951 33.2061C39.5849 33.3601 39.7314 33.473 39.9033 33.5205C40.0815 33.5584 40.2673 33.5339 40.4297 33.4512Z" fill="white"/>
<path d="M43.4122 30.7617L43.7051 30.0781C43.7919 29.9171 43.8166 29.7298 43.7745 29.5518C43.7256 29.3805 43.6131 29.2345 43.46 29.1436C43.167 28.9883 42.6788 29.0371 42.5254 29.3887L42.2325 30.0723C42.1457 30.2333 42.121 30.4206 42.1631 30.5986C42.212 30.7699 42.3245 30.9159 42.4776 31.0068C42.7706 31.1621 43.2588 31.1133 43.4122 30.7617Z" fill="white"/>
<path d="M42.163 26.5L42.456 27.2812C42.581 27.6152 42.9238 27.8799 43.2968 27.7588C43.623 27.6533 43.9091 27.2764 43.7744 26.918L43.4814 26.1367C43.3564 25.8027 43.0136 25.5381 42.6406 25.6592C42.3144 25.7646 42.0283 26.1416 42.163 26.5Z" fill="white"/>
<path d="M33.4434 30.0781L33.834 30.8594C33.9942 31.1807 34.4727 31.2959 34.7686 31.1045C34.922 31.0104 35.0332 30.8606 35.0789 30.6865C35.1246 30.5123 35.1012 30.3273 35.0137 30.1699L34.6231 29.3887C34.4629 29.0674 33.9844 28.9521 33.6885 29.1436C33.535 29.2377 33.4239 29.3875 33.3782 29.5616C33.3325 29.7357 33.3559 29.9208 33.4434 30.0781Z" fill="white"/>
<path d="M33.7647 25.8438L33.5694 26.8203C33.499 27.1699 33.667 27.5752 34.0469 27.6611C34.3867 27.7383 34.8125 27.5586 34.8877 27.1836L35.083 26.207C35.1533 25.8574 34.9854 25.4521 34.6055 25.3662C34.2656 25.2891 33.8399 25.4688 33.7647 25.8438Z" fill="white"/>
<path d="M36.7188 23.3848L35.9375 23.7754C35.6162 23.9355 35.501 24.4141 35.6924 24.71C35.7865 24.8634 35.9363 24.9746 36.1105 25.0203C36.2846 25.0659 36.4697 25.0426 36.627 24.9551L37.4082 24.5644C37.7295 24.4043 37.8448 23.9258 37.6534 23.6299C37.5592 23.4764 37.4094 23.3653 37.2353 23.3196C37.0612 23.2739 36.8761 23.2973 36.7188 23.3848Z" fill="white"/>
</svg>
