<svg width="50" height="50" viewBox="0 0 50 50" fill="none" xmlns="http://www.w3.org/2000/svg">
<rect width="50" height="50" rx="5" fill="#C0C0C0"/>
<path d="M32.5644 40.0391C29.9648 44.7012 23.5136 45.9873 19.1064 43.1143C17.9259 42.332 16.9509 41.2773 16.2636 40.0391C15.831 39.2725 14.6494 39.9609 15.084 40.7285C15.7941 41.982 16.7587 43.0731 17.9156 43.9316C19.0725 44.7902 20.3962 45.3973 21.8017 45.7139C24.7099 46.3662 27.9384 45.9141 30.4502 44.2695C31.8193 43.3715 32.9497 42.1543 33.7441 40.7227C34.1738 39.9541 32.9931 39.2637 32.5644 40.0332V40.0391Z" fill="white"/>
<path d="M26.3672 21.4355H22.5586L23.2422 22.1191V3.61328L22.5586 4.29688H26.3672L25.6836 3.61328V22.1191C25.6836 22.998 27.0508 22.998 27.0508 22.1191V3.61328C27.048 3.43284 26.9751 3.26058 26.8475 3.13297C26.7199 3.00537 26.5476 2.93246 26.3672 2.92969H22.5586C22.3782 2.93246 22.2059 3.00537 22.0783 3.13297C21.9507 3.26058 21.8778 3.43284 21.875 3.61328V22.1191C21.8778 22.2996 21.9507 22.4718 22.0783 22.5994C22.2059 22.7271 22.3782 22.8 22.5586 22.8027H26.3672C27.2461 22.8027 27.2461 21.4355 26.3672 21.4355Z" fill="white"/>
<path d="M31.3477 25.9277H17.7734L18.457 26.6113V22.168L17.7734 22.8516H31.3477L30.6641 22.168V26.6113C30.6641 27.4902 32.0312 27.4902 32.0312 26.6113V22.168C32.0285 21.9875 31.9556 21.8153 31.828 21.6877C31.7004 21.5601 31.5281 21.4871 31.3477 21.4844H17.7734C17.593 21.4871 17.4207 21.5601 17.2931 21.6877C17.1655 21.8153 17.0926 21.9875 17.0898 22.168V26.6113C17.0926 26.7918 17.1655 26.964 17.2931 27.0916C17.4207 27.2192 17.593 27.2922 17.7734 27.2949H31.3477C32.2266 27.2949 32.2266 25.9277 31.3477 25.9277Z" fill="white"/>
<path d="M33.2031 30.6152H15.8203L16.5039 31.2988V26.6602L15.8203 27.3438H33.2031L32.5195 26.6602V31.2988C32.5195 32.1777 33.8867 32.1777 33.8867 31.2988V26.6602C33.8839 26.4797 33.811 26.3075 33.6834 26.1798C33.5558 26.0522 33.3836 25.9793 33.2031 25.9766H15.8203C15.6399 25.9793 15.4676 26.0522 15.34 26.1798C15.2124 26.3075 15.1395 26.4797 15.1367 26.6602V31.2988C15.1395 31.4793 15.2124 31.6515 15.34 31.7791C15.4676 31.9067 15.6399 31.9797 15.8203 31.9824H33.2031C34.082 31.9824 34.082 30.6152 33.2031 30.6152Z" fill="white"/>
<path d="M34.9609 35.4004H13.7695L14.4531 36.084V31.3477L13.7695 32.0312H34.9609L34.2773 31.3477V36.084C34.2773 36.9629 35.6445 36.9629 35.6445 36.084V31.3477C35.6418 31.1672 35.5688 30.995 35.4412 30.8673C35.3136 30.7397 35.1414 30.6668 34.9609 30.6641H13.7695C13.5891 30.6668 13.4168 30.7397 13.2892 30.8673C13.1616 30.995 13.0887 31.1672 13.0859 31.3477V36.084C13.0887 36.2644 13.1616 36.4367 13.2892 36.5643C13.4168 36.6919 13.5891 36.7648 13.7695 36.7676H34.9609C35.8398 36.7676 35.8398 35.4004 34.9609 35.4004Z" fill="white"/>
<path d="M44.1406 39.5508H6.48535C5.98633 39.5508 5.44531 39.4912 4.94922 39.5508C4.92711 39.5523 4.90492 39.5523 4.88281 39.5508L5.56641 40.2344V36.1328L4.88281 36.8164H42.5381C43.0371 36.8164 43.5781 36.876 44.0742 36.8164C44.0963 36.8149 44.1185 36.8149 44.1406 36.8164L43.457 36.1328V40.2344C43.457 41.1133 44.8242 41.1133 44.8242 40.2344V36.1328C44.8214 35.9524 44.7485 35.7801 44.6209 35.6525C44.4933 35.5249 44.3211 35.452 44.1406 35.4492H9.72168C8.13574 35.4492 6.53418 35.3828 4.94922 35.4492H4.88281C4.70238 35.452 4.53011 35.5249 4.4025 35.6525C4.2749 35.7801 4.20199 35.9524 4.19922 36.1328V40.2344C4.20199 40.4148 4.2749 40.5871 4.4025 40.7147C4.53011 40.8423 4.70238 40.9152 4.88281 40.918H39.3018C40.8877 40.918 42.4893 40.9844 44.0742 40.918H44.1406C45.0195 40.918 45.0195 39.5508 44.1406 39.5508Z" fill="white"/>
</svg>
