<svg width="50" height="50" viewBox="0 0 50 50" fill="none" xmlns="http://www.w3.org/2000/svg">
<rect width="50" height="50" rx="5" fill="#C0C0C0"/>
<path d="M10.5088 31.5928C10.8164 32.374 11.0947 33.1963 11.2012 34.0342C11.2443 34.3028 11.2528 34.5759 11.2266 34.8467C11.1943 35.0752 11.0879 35.1211 11.3096 34.9658C11.4131 34.8926 11.4346 34.9883 11.415 34.9492C11.3477 34.8946 11.2769 34.8444 11.2031 34.7988C11.0146 34.6289 10.8461 34.4379 10.7012 34.2295C10.2419 33.5786 9.86224 32.875 9.57032 32.1338C9.25685 31.3594 8.98438 30.5244 8.87892 29.6924C8.83729 29.4275 8.82876 29.1585 8.85353 28.8916C8.88282 28.666 8.99024 28.6064 8.77052 28.7607C8.64356 28.8496 8.61329 28.7041 8.80372 28.8643C9.01971 29.0506 9.21162 29.2632 9.37501 29.4971C9.83339 30.1484 10.2127 30.8519 10.5049 31.5928C10.6455 31.9365 10.958 32.1719 11.3457 32.0703C11.6709 31.9844 11.9629 31.5703 11.8233 31.2285C11.4863 30.4053 11.1084 29.5937 10.5947 28.8633C10.2481 28.3691 9.83888 27.8389 9.28614 27.5635C8.79786 27.3213 8.24122 27.3682 7.86817 27.7822C7.45704 28.2393 7.44337 28.959 7.49317 29.5352C7.64649 31.293 8.33888 33.0937 9.28224 34.5713C9.78614 35.3594 11.0527 37.0312 12.1211 36.0361C12.5908 35.5967 12.6309 34.8584 12.585 34.2588C12.5059 33.2148 12.2041 32.2012 11.8233 31.2314C11.5088 30.4189 10.1865 30.7715 10.5088 31.5928Z" fill="white"/>
<path d="M11.2793 30.9082C11.3332 30.9082 11.377 30.8863 11.377 30.8594C11.377 30.8324 11.3332 30.8105 11.2793 30.8105C11.2254 30.8105 11.1816 30.8324 11.1816 30.8594C11.1816 30.8863 11.2254 30.9082 11.2793 30.9082Z" stroke="white" stroke-miterlimit="10"/>
<path d="M12.5527 31.0166C13.1855 32.6113 13.7002 34.2754 13.9375 35.9795C14.083 37.0264 14.2119 38.3232 13.7881 39.3242C13.728 39.4646 13.6488 39.5961 13.5527 39.7148C13.4822 39.7867 13.3996 39.8455 13.3086 39.8887C13.1074 39.9697 12.8711 39.916 12.6103 39.7998C11.6767 39.3838 10.9287 38.4863 10.3349 37.6865C8.40819 35.0908 7.10252 31.8965 6.52635 28.7246C6.31248 27.5469 6.15135 26.2109 6.49119 25.04C6.53645 24.8691 6.60409 24.7049 6.69237 24.5518C6.75658 24.4398 6.84298 24.3421 6.94627 24.2647C7.12596 24.1426 7.30174 24.1494 7.55467 24.2266C8.51365 24.5195 9.37694 25.543 9.98924 26.3564C11.0556 27.7715 11.8877 29.375 12.5517 31.0137C12.6914 31.3584 13.0058 31.5928 13.3926 31.4912C13.7187 31.4053 14.0088 30.9922 13.8701 30.6504C13.1865 28.96 12.3691 27.3115 11.293 25.833C10.54 24.7979 9.6328 23.6787 8.44627 23.1182C7.53514 22.6865 6.47166 22.6816 5.77342 23.5C4.95213 24.4619 4.89451 25.9268 4.9658 27.124C5.07225 29.0391 5.56151 30.9326 6.21971 32.7275C6.86912 34.499 7.68455 36.2285 8.7451 37.7949C9.73533 39.2598 12.2881 42.5723 14.3613 40.8223C15.3965 39.9482 15.4658 38.2832 15.4033 37.0371C15.293 34.8428 14.6767 32.6816 13.8701 30.6494C13.5508 29.8447 12.2275 30.1973 12.5527 31.0166Z" fill="white"/>
<path d="M37.1446 10.1807C37.2137 10.1539 37.2849 10.133 37.3575 10.1182C37.4649 10.0967 37.2549 10.124 37.3672 10.1182C37.3995 10.1182 37.4327 10.1182 37.4649 10.1182C37.6194 10.1267 37.7708 10.1645 37.9112 10.2295C38.268 10.3977 38.5972 10.6189 38.8878 10.8857C39.8585 11.749 40.6104 12.8389 41.2627 13.9521C42.1408 15.4612 42.8477 17.0636 43.3702 18.7295C43.8389 20.21 44.2002 21.7568 44.2295 23.3193C44.2403 23.915 44.212 24.5225 44.0274 25.0937C43.8946 25.5068 43.7481 25.7227 43.4151 25.8682C43.0821 26.0137 43.003 26.5098 43.17 26.8027C43.3702 27.1553 43.7686 27.1934 44.1055 27.0488C45.1631 26.5879 45.4727 25.2803 45.5704 24.2471C45.7266 22.5762 45.3877 20.8359 44.9483 19.2314C44.4151 17.2943 43.6522 15.4279 42.6758 13.6719C41.9385 12.3447 41.0586 11.0215 39.9336 9.99023C39.126 9.25 37.9327 8.43555 36.7842 8.86133C35.9659 9.16406 36.3204 10.4863 37.1475 10.1797L37.1446 10.1807Z" fill="white"/>
<path d="M12.3399 21.5088C12.409 21.4821 12.4802 21.4612 12.5528 21.4463C12.6602 21.4248 12.4551 21.4521 12.5626 21.4463C12.5948 21.4463 12.628 21.4463 12.6602 21.4463C12.8147 21.4549 12.9661 21.4926 13.1065 21.5576C13.4616 21.7262 13.7892 21.9475 14.0782 22.2139C15.0489 23.0771 15.8008 24.167 16.4532 25.2803C17.3313 26.7893 18.0381 28.3917 18.5606 30.0576C19.0294 31.5381 19.3907 33.085 19.42 34.6475C19.4307 35.2432 19.4024 35.8506 19.2178 36.4219C19.085 36.835 18.9385 37.0508 18.6055 37.1963C18.2725 37.3418 18.1934 37.8379 18.3604 38.1309C18.5606 38.4834 18.959 38.5215 19.296 38.377C20.3536 37.916 20.6631 36.6084 20.7559 35.5752C20.9122 33.9043 20.5733 32.1641 20.1339 30.5596C19.6038 28.6229 18.8441 26.7564 17.8712 25C17.1339 23.6729 16.254 22.3496 15.129 21.3184C14.3213 20.5781 13.128 19.7637 11.9796 20.1895C11.1612 20.4922 11.5157 21.8145 12.3428 21.5078L12.3399 21.5088Z" fill="white"/>
<path d="M28.3652 8.93555C29.668 8.43262 31.0312 9.00684 32.1914 9.79785C33.8906 10.9561 35.2412 12.6357 36.3555 14.3428C37.8577 16.6646 39.0189 19.1901 39.8037 21.8418C40.5273 24.2627 40.9853 26.8223 40.8115 29.3525C40.7021 30.9434 40.2646 33.3076 38.5889 34.0078C38.2461 34.1514 38.0088 34.459 38.1123 34.8486C38.1972 35.1709 38.6123 35.4688 38.9531 35.3262C40.7549 34.5732 41.6328 32.7744 41.9805 30.9375C42.4775 28.2949 42.1455 25.5225 41.5176 22.9297C40.796 19.9618 39.6326 17.1192 38.0664 14.4971C36.8164 12.4092 35.2822 10.4219 33.334 8.94043C31.8613 7.8252 29.8496 6.9043 28.0019 7.61719C27.1904 7.93164 27.543 9.25391 28.3652 8.93555Z" fill="white"/>
<path d="M8.87113 22.9492C8.81742 20.7383 9.17972 16.543 12.084 16.3848C14.4668 16.2549 16.6387 18.4863 18.041 20.1934C20.461 23.1436 22.1192 26.7939 23.0616 30.4717C23.5244 32.2744 23.8116 34.1289 23.7901 35.9941C23.7735 37.3613 23.6114 38.8262 22.9785 40.0596C22.4092 41.1689 21.4639 41.9316 20.169 41.8613C18.2159 41.7559 16.4942 40.1406 15.2481 38.7852C14.6504 38.1367 13.6856 39.1055 14.2813 39.7519C15.627 41.2168 17.3291 42.6914 19.3311 43.1152C20.7959 43.4258 22.3076 43.0527 23.335 41.9307C24.3321 40.8457 24.7998 39.3691 25.001 37.9365C25.2764 35.999 25.1416 34.0361 24.8057 32.1152C24.0703 27.8809 22.3174 23.6602 19.7578 20.2012C18.0586 17.9033 15.585 15.2207 12.5264 15.0176C10.9932 14.9199 9.63676 15.7139 8.79496 16.9707C7.6475 18.6836 7.4473 20.9443 7.49613 22.9482C7.51762 23.8271 8.8848 23.8271 8.86332 22.9482L8.87113 22.9492Z" fill="white"/>
<path d="M7.5195 23.9785L12.5 21.4395C13.2812 21.04 12.5976 19.8604 11.8105 20.2598L6.83004 22.7988C6.04879 23.1982 6.73239 24.3779 7.5195 23.9785Z" fill="white"/>
<path d="M14.7461 40.6777L19.5312 38.1387C20.3125 37.7266 19.6191 36.5459 18.8418 36.959L14.0566 39.498C13.2754 39.9102 13.9687 41.0908 14.7461 40.6777Z" fill="white"/>
<path d="M11.8164 16.2637L17.3448 13.7959L26.1719 9.85547L28.2227 8.93945C29.0245 8.58203 28.3301 7.40332 27.5332 7.75976L22.0049 10.2275L13.1836 14.168L11.1329 15.084C10.3311 15.4414 11.0254 16.6201 11.8223 16.2637H11.8164Z" fill="white"/>
<path d="M23.1446 42.2402L28.6729 39.7725L37.5 35.832L39.5508 34.916C40.3526 34.5586 39.6582 33.3799 38.8614 33.7363L33.333 36.2041L24.5118 40.1445L22.461 41.0606C21.6592 41.418 22.3536 42.5967 23.1504 42.2402H23.1446Z" fill="white"/>
<path d="M36.6211 8.93164L34.5703 9.9082C33.7763 10.2861 34.4726 11.4648 35.2597 11.0879L37.3105 10.1113C38.1045 9.7334 37.4082 8.55469 36.6211 8.93164Z" fill="white"/>
<path d="M43.6523 25.7285L41.6015 26.7051C40.8076 27.083 41.5039 28.2617 42.291 27.8848L44.3418 26.9082C45.1357 26.5303 44.4394 25.3516 43.6523 25.7285Z" fill="white"/>
</svg>
