<svg width="50" height="50" viewBox="0 0 50 50" fill="none" xmlns="http://www.w3.org/2000/svg">
<rect width="50" height="50" rx="5" fill="#C0C0C0"/>
<path d="M19.336 25.4883C19.3614 23.0244 20.8985 20.7197 23.253 19.8877C24.4125 19.4767 25.67 19.4299 26.8569 19.7537C28.0438 20.0775 29.1034 20.7563 29.8936 21.6992C31.4844 23.6055 31.6797 26.4053 30.4161 28.5352C29.1524 30.665 26.5801 31.8359 24.1368 31.335C22.7893 31.055 21.5782 30.3222 20.7049 29.2586C19.8315 28.195 19.3484 26.8645 19.336 25.4883C19.3272 24.6094 17.96 24.6094 17.9688 25.4883C17.9826 26.9841 18.4481 28.4409 19.3043 29.6675C20.1605 30.8942 21.3673 31.8335 22.7666 32.3623C25.5987 33.4365 28.9737 32.5313 30.9004 30.1953C32.8692 27.8096 33.1827 24.3623 31.5625 21.6992C30.7724 20.4158 29.6097 19.4038 28.2296 18.7981C26.8494 18.1925 25.3174 18.0221 23.8379 18.3096C20.4395 18.9707 18.003 22.0703 17.9688 25.4883C17.96 26.3672 19.3272 26.3672 19.336 25.4883Z" fill="white"/>
<path d="M16.5528 25.4883C16.5781 21.8701 18.8545 18.5098 22.2881 17.2764C23.9977 16.6674 25.8532 16.5987 27.6032 17.0796C29.3531 17.5605 30.913 18.5677 32.0713 19.9648C34.3985 22.7754 34.6524 26.8984 32.7744 30.0098C30.8965 33.1211 27.1709 34.7812 23.6074 34.0684C19.5313 33.252 16.5821 29.6309 16.5528 25.4883C16.5469 24.6094 15.1797 24.6094 15.1856 25.4883C15.2028 27.5635 15.8508 29.5844 17.0435 31.2827C18.2362 32.981 19.9171 34.2765 21.8633 34.9971C25.8223 36.4502 30.4727 35.1631 33.1182 31.8799C35.7637 28.5967 36.1455 23.9072 33.9551 20.2773C31.751 16.6289 27.4121 14.752 23.2442 15.5898C18.5821 16.5273 15.2188 20.7725 15.1856 25.4883C15.1797 26.3672 16.5469 26.3672 16.5528 25.4883Z" fill="white"/>
<path d="M8.25196 25.4883C8.2793 18.4189 12.7725 11.8818 19.4531 9.47265C26.21 7.03125 33.8867 9.14258 38.461 14.666C43.0205 20.166 43.5674 28.2129 39.876 34.3105C36.1953 40.3887 28.8926 43.6172 21.919 42.1973C14.9961 40.7871 9.57618 35.1104 8.45313 28.1416C8.31682 27.2638 8.24956 26.3766 8.25196 25.4883C8.25196 24.6094 6.88477 24.6094 6.88477 25.4883C6.91407 33.1543 11.7734 40.1201 18.9668 42.7783C26.1807 45.4443 34.586 43.1602 39.4688 37.2275C44.3828 31.2578 45.0742 22.6123 41.0567 15.9766C37.0528 9.37109 29.1846 5.9375 21.6231 7.44824C14.209 8.92871 8.25782 15.1279 7.11426 22.6035C6.96657 23.5581 6.88986 24.5223 6.88477 25.4883C6.88184 26.3672 8.24903 26.3672 8.25196 25.4883Z" fill="white"/>
<path d="M5.61524 25.4883C5.61362 22.4442 6.31841 19.4413 7.67414 16.7157C9.02988 13.9902 10.9996 11.6165 13.4283 9.78129C15.857 7.94609 18.6784 6.69951 21.6705 6.13962C24.6627 5.57973 27.744 5.72182 30.6719 6.55469C34.5207 7.65893 37.9455 9.90169 40.4961 12.9883C45.7598 19.3418 46.3975 28.6328 42.1309 35.6768C40.0279 39.1573 36.8975 41.9003 33.1709 43.528C29.4444 45.1557 25.3048 45.5881 21.3223 44.7656C13.3643 43.1182 7.12891 36.5644 5.84668 28.543C5.69053 27.5323 5.61314 26.511 5.61524 25.4883C5.61524 24.6094 4.24805 24.6094 4.24805 25.4883C4.2627 29.8252 5.59571 34.1162 8.12012 37.6514C10.5977 41.1239 14.0606 43.7727 18.0606 45.2549C26.3135 48.3018 35.916 45.6914 41.5029 38.9072C43.5658 36.4174 45.027 33.4857 45.7732 30.3397C46.5193 27.1937 46.5304 23.918 45.8054 20.767C45.0804 17.616 43.6389 14.6745 41.5929 12.1709C39.5469 9.66732 36.9513 7.66897 34.0078 6.33105C29.9612 4.50826 25.446 3.99576 21.0938 4.86523C12.6162 6.56347 5.82129 13.6543 4.5127 22.2012C4.3431 23.2888 4.25464 24.3875 4.24805 25.4883C4.24512 26.3672 5.61231 26.3672 5.61524 25.4883Z" fill="white"/>
<path d="M21.875 11.9873C21.8984 10.5615 22.7705 9.23828 24.1338 8.75195C24.8222 8.49927 25.5733 8.47277 26.2778 8.67629C26.9823 8.87982 27.6035 9.30276 28.0511 9.88363C28.4987 10.4645 28.7494 11.173 28.7666 11.9061C28.7839 12.6392 28.5668 13.3587 28.147 13.96C27.7273 14.5613 27.1266 15.013 26.4325 15.2494C25.7383 15.4859 24.9868 15.4947 24.2873 15.2747C23.5877 15.0547 22.9766 14.6173 22.5428 14.026C22.109 13.4348 21.875 12.7206 21.875 11.9873C21.8603 11.1084 20.4932 11.1084 20.5078 11.9873C20.5184 12.9784 20.8303 13.9428 21.4021 14.7523C21.9739 15.5619 22.7785 16.1783 23.709 16.5195C25.5644 17.2031 27.7646 16.5879 29.0146 15.0547C30.2842 13.4971 30.4912 11.2598 29.4482 9.52051C28.9292 8.66714 28.1603 7.99397 27.2459 7.5922C26.3314 7.19043 25.3156 7.07949 24.3359 7.27441C22.1064 7.71484 20.5439 9.75488 20.5078 11.9873C20.4932 12.8672 21.8603 12.8672 21.875 11.9873Z" fill="white"/>
<path d="M21.875 38.9404C21.8984 37.5146 22.7705 36.1914 24.1338 35.7051C24.8222 35.4524 25.5733 35.4259 26.2778 35.6294C26.9823 35.8329 27.6035 36.2559 28.0511 36.8367C28.4987 37.4176 28.7494 38.1261 28.7666 38.8592C28.7839 39.5923 28.5668 40.3118 28.147 40.9131C27.7273 41.5144 27.1266 41.9661 26.4325 42.2025C25.7383 42.439 24.9868 42.4478 24.2873 42.2278C23.5877 42.0078 22.9766 41.5704 22.5428 40.9792C22.109 40.3879 21.875 39.6737 21.875 38.9404C21.8603 38.0615 20.4932 38.0615 20.5078 38.9404C20.5184 39.9315 20.8303 40.8959 21.4021 41.7054C21.9739 42.515 22.7785 43.1314 23.709 43.4726C25.5644 44.1562 27.7646 43.541 29.0146 42.0078C30.2842 40.4502 30.4912 38.2129 29.4482 36.4736C28.9292 35.6203 28.1603 34.9471 27.2459 34.5453C26.3314 34.1436 25.3156 34.0326 24.3359 34.2275C22.1064 34.665 20.5439 36.7031 20.5078 38.9355C20.4932 39.8203 21.8603 39.8203 21.875 38.9404Z" fill="white"/>
<path d="M8.30078 25.3662C8.32421 23.9404 9.19629 22.6172 10.5596 22.1309C11.248 21.8782 11.999 21.8517 12.7036 22.0552C13.4081 22.2587 14.0293 22.6817 14.4769 23.2625C14.9245 23.8434 15.1752 24.5519 15.1924 25.285C15.2097 26.0181 14.9926 26.7376 14.5728 27.3389C14.153 27.9402 13.5524 28.3919 12.8582 28.6283C12.1641 28.8648 11.4126 28.8736 10.7131 28.6536C10.0135 28.4336 9.40242 27.9962 8.96858 27.4049C8.53474 26.8137 8.3008 26.0995 8.30078 25.3662C8.28613 24.4873 6.91894 24.4873 6.93359 25.3662C6.94414 26.3573 7.25604 27.3217 7.82783 28.1312C8.39963 28.9408 9.20425 29.5571 10.1348 29.8984C11.9902 30.582 14.1904 29.9668 15.4404 28.4336C16.71 26.876 16.917 24.6387 15.874 22.8994C15.355 22.046 14.5861 21.3729 13.6717 20.9711C12.7572 20.5693 11.7413 20.4584 10.7617 20.6533C8.53222 21.0938 6.96972 23.1338 6.93359 25.3662C6.91894 26.2461 8.28613 26.2461 8.30078 25.3662Z" fill="white"/>
<path d="M35.4492 25.3662C35.4727 23.9404 36.3447 22.6172 37.708 22.1309C38.3964 21.8782 39.1475 21.8517 39.852 22.0552C40.5565 22.2587 41.1777 22.6817 41.6253 23.2625C42.0729 23.8434 42.3236 24.5519 42.3408 25.285C42.3581 26.0181 42.141 26.7376 41.7213 27.3389C41.3015 27.9402 40.7008 28.3919 40.0067 28.6283C39.3125 28.8648 38.561 28.8736 37.8615 28.6536C37.162 28.4336 36.5509 27.9962 36.117 27.4049C35.6832 26.8137 35.4492 26.0995 35.4492 25.3662C35.4346 24.4873 34.0674 24.4873 34.082 25.3662C34.0926 26.3573 34.4045 27.3217 34.9763 28.1312C35.5481 28.9408 36.3527 29.5571 37.2832 29.8984C39.1387 30.582 41.3389 29.9668 42.5889 28.4336C43.8584 26.876 44.0654 24.6387 43.0225 22.8994C42.5034 22.046 41.7346 21.3729 40.8201 20.9711C39.9056 20.5693 38.8898 20.4584 37.9102 20.6533C35.6807 21.0908 34.1182 23.1289 34.082 25.3613C34.0674 26.2461 35.4346 26.2461 35.4492 25.3662Z" fill="white"/>
<path d="M31.4453 15.7959C31.4687 14.3701 32.3408 13.0469 33.7041 12.5605C34.3925 12.3079 35.1436 12.2814 35.8481 12.4849C36.5526 12.6884 37.1738 13.1114 37.6214 13.6922C38.069 14.2731 38.3197 14.9816 38.3369 15.7147C38.3542 16.4478 38.1371 17.1673 37.7174 17.7686C37.2976 18.3699 36.6969 18.8216 36.0028 19.058C35.3086 19.2945 34.5571 19.3033 33.8576 19.0833C33.1581 18.8633 32.5469 18.4259 32.1131 17.8346C31.6793 17.2434 31.4453 16.5292 31.4453 15.7959C31.4307 14.917 30.0635 14.917 30.0781 15.7959C30.0887 16.787 30.4006 17.7514 30.9724 18.5609C31.5442 19.3705 32.3488 19.9868 33.2793 20.3281C35.1348 21.0117 37.335 20.3965 38.585 18.8633C39.8545 17.3057 40.0615 15.0684 39.0186 13.3291C38.4995 12.4757 37.7307 11.8026 36.8162 11.4008C35.9017 10.999 34.8859 10.8881 33.9062 11.083C31.6768 11.5205 30.1143 13.5586 30.0781 15.791C30.0635 16.6758 31.4307 16.6758 31.4453 15.7959Z" fill="white"/>
<path d="M12.207 15.8936C12.2305 14.4678 13.1025 13.1445 14.4658 12.6582C15.1542 12.4055 15.9053 12.379 16.6098 12.5825C17.3143 12.7861 17.9355 13.209 18.3831 13.7899C18.8308 14.3707 19.0814 15.0792 19.0987 15.8124C19.1159 16.5455 18.8989 17.265 18.4791 17.8663C18.0593 18.4675 17.4586 18.9192 16.7645 19.1557C16.0703 19.3921 15.3189 19.401 14.6193 19.181C13.9198 18.9609 13.3087 18.5235 12.8748 17.9323C12.441 17.3411 12.2071 16.6269 12.207 15.8936C12.1924 15.0147 10.8252 15.0147 10.8398 15.8936C10.8504 16.8846 11.1623 17.849 11.7341 18.6586C12.3059 19.4681 13.1105 20.0845 14.041 20.4258C15.8965 21.1094 18.0967 20.4942 19.3467 18.9609C20.6162 17.4033 20.8232 15.166 19.7803 13.4268C19.2612 12.5734 18.4924 11.9002 17.5779 11.4985C16.6635 11.0967 15.6476 10.9857 14.668 11.1807C12.4385 11.6182 10.876 13.6563 10.8398 15.8887C10.8252 16.7734 12.1924 16.7734 12.207 15.8936Z" fill="white"/>
<path d="M12.3047 35.0342C12.3281 33.6084 13.2002 32.2852 14.5635 31.7988C15.2519 31.5461 16.003 31.5196 16.7075 31.7232C17.412 31.9267 18.0332 32.3496 18.4808 32.9305C18.9284 33.5114 19.1791 34.2199 19.1963 34.953C19.2136 35.6861 18.9965 36.4056 18.5767 37.0069C18.1569 37.6082 17.5563 38.0599 16.8621 38.2963C16.168 38.5327 15.4165 38.5416 14.717 38.3216C14.0174 38.1015 13.4063 37.6641 12.9725 37.0729C12.5386 36.4817 12.3047 35.7675 12.3047 35.0342C12.29 34.1553 10.9228 34.1553 10.9375 35.0342C10.948 36.0252 11.2599 36.9896 11.8317 37.7992C12.4035 38.6087 13.2082 39.2251 14.1387 39.5664C15.9941 40.25 18.1943 39.6347 19.4443 38.1015C20.7139 36.5439 20.9209 34.3066 19.8779 32.5674C19.3589 31.714 18.59 31.0408 17.6756 30.6391C16.7611 30.2373 15.7452 30.1264 14.7656 30.3213C12.5361 30.7588 10.9736 32.7969 10.9375 35.0293C10.9228 35.9141 12.29 35.9141 12.3047 35.0342Z" fill="white"/>
<path d="M31.543 35.0342C31.5664 33.6084 32.4385 32.2852 33.8018 31.7988C34.4902 31.5461 35.2412 31.5196 35.9457 31.7232C36.6503 31.9267 37.2715 32.3496 37.7191 32.9305C38.1667 33.5114 38.4173 34.2199 38.4346 34.953C38.4518 35.6861 38.2348 36.4056 37.815 37.0069C37.3952 37.6082 36.7946 38.0599 36.1004 38.2963C35.4063 38.5327 34.6548 38.5416 33.9553 38.3216C33.2557 38.1015 32.6446 37.6641 32.2108 37.0729C31.7769 36.4817 31.543 35.7675 31.543 35.0342C31.5283 34.1553 30.1611 34.1553 30.1758 35.0342C30.1863 36.0252 30.4982 36.9896 31.07 37.7992C31.6418 38.6087 32.4464 39.2251 33.3769 39.5664C35.2324 40.25 37.4326 39.6347 38.6826 38.1015C39.9521 36.5439 40.1592 34.3066 39.1162 32.5674C38.5972 31.714 37.8283 31.0408 36.9138 30.6391C35.9994 30.2373 34.9835 30.1264 34.0039 30.3213C31.7744 30.7588 30.2119 32.7969 30.1758 35.0293C30.1611 35.9141 31.5283 35.9141 31.543 35.0342Z" fill="white"/>
</svg>
