<svg width="50" height="50" viewBox="0 0 50 50" fill="none" xmlns="http://www.w3.org/2000/svg">
<path d="M0 5C0 2.23858 2.23858 0 5 0H45C47.7614 0 50 2.23858 50 5V45C50 47.7614 47.7614 50 45 50H5C2.23858 50 0 47.7614 0 45V5Z" fill="#C0C0C0"/>
<g clip-path="url(#clip0_89_180)">
<path d="M20.7679 12.4335H11.7673L12.4522 13.1187V10.1823L11.7673 10.8674H20.7679L20.083 10.1823V13.1187C20.083 13.9996 21.4527 13.9996 21.4527 13.1187V10.1823C21.4499 10.0014 21.3769 9.82876 21.249 9.70086C21.1212 9.57296 20.9486 9.49989 20.7679 9.49711H11.7673C11.5866 9.49989 11.414 9.57296 11.2862 9.70086C11.1583 9.82876 11.0853 10.0014 11.0825 10.1823V13.1187C11.0853 13.2995 11.1583 13.4722 11.2862 13.6001C11.414 13.728 11.5866 13.8011 11.7673 13.8039H20.7679C21.6493 13.8039 21.6503 12.4335 20.7679 12.4335Z" fill="white"/>
<path d="M20.7679 38.0783H11.7673L12.4522 38.7634V35.827L11.7673 36.5122H20.7679L20.083 35.827V38.7634C20.083 39.6444 21.4527 39.6444 21.4527 38.7634V35.827C21.4499 35.6462 21.3769 35.4735 21.249 35.3456C21.1212 35.2177 20.9486 35.1446 20.7679 35.1419H11.7673C11.5866 35.1446 11.414 35.2177 11.2862 35.3456C11.1583 35.4735 11.0853 35.6462 11.0825 35.827V38.7634C11.0853 38.9443 11.1583 39.117 11.2862 39.2449C11.414 39.3728 11.5866 39.4458 11.7673 39.4486H20.7679C21.6493 39.4486 21.6503 38.0783 20.7679 38.0783Z" fill="white"/>
<path d="M14.1153 35.7291V13.2166L13.4304 13.9017H19.1047L18.4199 13.2166V35.7291L19.1047 35.044H13.4304C12.5499 35.044 12.5499 36.4143 13.4304 36.4143H19.1047C19.2854 36.4115 19.458 36.3385 19.5858 36.2106C19.7137 36.0827 19.7867 35.91 19.7895 35.7291V13.2166C19.7867 13.0357 19.7137 12.8631 19.5858 12.7352C19.458 12.6073 19.2854 12.5342 19.1047 12.5314H13.4304C13.2497 12.5342 13.0771 12.6073 12.9493 12.7352C12.8214 12.8631 12.7484 13.0357 12.7456 13.2166V35.7291C12.7456 36.611 14.1153 36.612 14.1153 35.7291Z" fill="white"/>
<path d="M14.4088 7.53949C14.4088 7.17167 14.5178 6.81211 14.722 6.50628C14.9263 6.20045 15.2166 5.96208 15.5562 5.82132C15.8959 5.68056 16.2696 5.64373 16.6302 5.71549C16.9908 5.78725 17.322 5.96437 17.5819 6.22446C17.8419 6.48455 18.0189 6.81592 18.0907 7.17668C18.1624 7.53743 18.1256 7.91136 17.9849 8.25118C17.8442 8.591 17.6059 8.88145 17.3003 9.0858C16.9946 9.29015 16.6352 9.39923 16.2676 9.39923C15.7762 9.39388 15.3065 9.19623 14.9591 8.84861C14.6117 8.501 14.4141 8.03107 14.4088 7.53949C14.3863 6.65857 13.0156 6.65857 13.0391 7.53949C13.0473 8.20404 13.2567 8.85049 13.6397 9.39346C14.0228 9.93643 14.5614 10.3504 15.1846 10.5806C15.6513 10.7484 16.1504 10.8063 16.6431 10.7499C17.1358 10.6935 17.6089 10.5243 18.0256 10.2554C18.4424 9.98651 18.7917 9.62518 19.0463 9.19942C19.301 8.77367 19.4542 8.29494 19.4941 7.80038C19.5339 7.30581 19.4594 6.80871 19.2762 6.34764C19.093 5.88656 18.8061 5.4739 18.4378 5.14168C18.0694 4.80946 17.6295 4.5666 17.1522 4.43194C16.6749 4.29729 16.173 4.27446 15.6855 4.36522C14.1436 4.62852 13.0792 6.01059 13.0391 7.53949C13.0156 8.4214 14.3853 8.4214 14.4088 7.53949Z" fill="white"/>
<path d="M13.4305 42.385C13.453 41.2105 14.1642 40.123 15.2893 39.7178C15.839 39.521 16.4355 39.4965 16.9995 39.6474C17.5635 39.7983 18.0682 40.1175 18.4463 40.5625C20.1153 42.5367 18.3299 45.6278 15.7902 45.1864C15.133 45.0663 14.5382 44.721 14.108 44.2098C13.6777 43.6985 13.4388 43.0533 13.4324 42.385C13.4158 41.5041 12.0461 41.5041 12.0628 42.385C12.0635 43.2492 12.3302 44.0923 12.8265 44.7996C13.3228 45.5069 14.0247 46.0442 14.8368 46.3385C15.6489 46.6329 16.5319 46.67 17.3659 46.4447C18.1998 46.2195 18.9442 45.7429 19.498 45.0797C20.626 43.7094 20.8031 41.7145 19.86 40.1857C19.4029 39.4536 18.7345 38.8775 17.9432 38.5335C17.1519 38.1896 16.275 38.094 15.4282 38.2594C13.4715 38.6372 12.1019 40.4225 12.0647 42.3821C12.0442 43.2669 13.4138 43.2669 13.4305 42.385Z" fill="white"/>
<path d="M16.2187 43.6252C17.7928 43.6252 17.7947 41.1782 16.2187 41.1782C14.6426 41.1782 14.6426 43.6252 16.2187 43.6252Z" fill="white"/>
<path d="M11.5854 16.52L19.5391 19.7716L20.6837 20.2395C21.0291 20.3805 21.4331 20.0858 21.5261 19.7609C21.6386 19.3694 21.3881 19.0571 21.0477 18.9181L13.0939 15.6665L11.9493 15.1987C11.604 15.0577 11.1999 15.3523 11.107 15.6773C10.9945 16.0688 11.2449 16.3811 11.5854 16.52Z" fill="white"/>
<path d="M11.5854 21.0226L19.5391 24.2742L20.6837 24.742C21.0291 24.883 21.4331 24.5884 21.5261 24.2634C21.6386 23.8719 21.3881 23.5596 21.0477 23.4206L13.0939 20.169L11.9493 19.7012C11.604 19.5602 11.1999 19.8548 11.107 20.1798C10.9945 20.5713 11.2449 20.8836 11.5854 21.0226Z" fill="white"/>
<path d="M11.5854 25.5251L19.5391 28.7767L20.6837 29.2445C21.0291 29.3855 21.4331 29.0909 21.5261 28.7659C21.6386 28.3744 21.3881 28.0621 21.0477 27.9232L13.0939 24.6716L11.9493 24.2037C11.604 24.0627 11.1999 24.3574 11.107 24.6823C10.9945 25.0738 11.2449 25.3861 11.5854 25.5251Z" fill="white"/>
<path d="M11.5854 30.0276L19.5391 33.2792L20.6837 33.7471C21.0291 33.888 21.4331 33.5934 21.5261 33.2684C21.6386 32.8769 21.3881 32.5647 21.0477 32.4257L13.0939 29.1741L11.9493 28.7062C11.604 28.5653 11.1999 28.8599 11.107 29.1848C10.9945 29.5764 11.2449 29.8886 11.5854 30.0276Z" fill="white"/>
<path d="M36.7144 12.4335H27.7139L28.3987 13.1187V10.1823L27.7139 10.8674H36.7144L36.0296 10.1823V13.1187C36.0296 13.9996 37.3992 13.9996 37.3992 13.1187V10.1823C37.3964 10.0014 37.3234 9.82876 37.1956 9.70086C37.0677 9.57296 36.8952 9.49989 36.7144 9.49711H27.7139C27.5331 9.49989 27.3605 9.57296 27.2327 9.70086C27.1049 9.82876 27.0318 10.0014 27.0291 10.1823V13.1187C27.0318 13.2995 27.1049 13.4722 27.2327 13.6001C27.3605 13.728 27.5331 13.8011 27.7139 13.8039H36.7144C37.5959 13.8039 37.5968 12.4335 36.7144 12.4335Z" fill="white"/>
<path d="M36.7144 38.0783H27.7139L28.3987 38.7634V35.827L27.7139 36.5122H36.7144L36.0296 35.827V38.7634C36.0296 39.6444 37.3992 39.6444 37.3992 38.7634V35.827C37.3964 35.6462 37.3234 35.4735 37.1956 35.3456C37.0677 35.2177 36.8952 35.1446 36.7144 35.1419H27.7139C27.5331 35.1446 27.3605 35.2177 27.2327 35.3456C27.1049 35.4735 27.0318 35.6462 27.0291 35.827V38.7634C27.0318 38.9443 27.1049 39.117 27.2327 39.2449C27.3605 39.3728 27.5331 39.4458 27.7139 39.4486H36.7144C37.5959 39.4486 37.5968 38.0783 36.7144 38.0783Z" fill="white"/>
<path d="M30.0619 35.7291V13.2166L29.3771 13.9017H35.0513L34.3665 13.2166V35.7291L35.0513 35.044H29.3771C28.4966 35.044 28.4966 36.4143 29.3771 36.4143H35.0513C35.2321 36.4115 35.4047 36.3385 35.5325 36.2106C35.6603 36.0827 35.7334 35.91 35.7362 35.7291V13.2166C35.7334 13.0357 35.6603 12.8631 35.5325 12.7352C35.4047 12.6073 35.2321 12.5342 35.0513 12.5314H29.3771C29.1963 12.5342 29.0237 12.6073 28.8959 12.7352C28.7681 12.8631 28.695 13.0357 28.6923 13.2166V35.7291C28.6923 36.611 30.0619 36.612 30.0619 35.7291Z" fill="white"/>
<path d="M30.3554 7.53949C30.3554 7.17167 30.4644 6.81211 30.6687 6.50628C30.8729 6.20045 31.1632 5.96208 31.5029 5.82132C31.8425 5.68056 32.2163 5.64373 32.5769 5.71549C32.9374 5.78725 33.2686 5.96437 33.5286 6.22446C33.7886 6.48455 33.9656 6.81592 34.0373 7.17668C34.109 7.53743 34.0722 7.91136 33.9315 8.25118C33.7908 8.591 33.5526 8.88145 33.2469 9.0858C32.9412 9.29015 32.5819 9.39923 32.2142 9.39923C31.7229 9.39388 31.2532 9.19623 30.9058 8.84861C30.5583 8.501 30.3608 8.03107 30.3554 7.53949C30.3329 6.65857 28.9623 6.65857 28.9858 7.53949C28.9939 8.20404 29.2033 8.85049 29.5864 9.39346C29.9694 9.93643 30.5081 10.3504 31.1312 10.5806C31.5979 10.7484 32.097 10.8063 32.5897 10.7499C33.0824 10.6935 33.5555 10.5243 33.9723 10.2554C34.3891 9.98651 34.7383 9.62518 34.993 9.19942C35.2477 8.77367 35.4009 8.29494 35.4407 7.80038C35.4806 7.30581 35.406 6.80871 35.2228 6.34764C35.0396 5.88656 34.7527 5.4739 34.3844 5.14168C34.0161 4.80946 33.5762 4.5666 33.0989 4.43194C32.6216 4.29729 32.1197 4.27446 31.6321 4.36522C30.0903 4.62852 29.0259 6.01059 28.9858 7.53949C28.9623 8.4214 30.3319 8.4214 30.3554 7.53949Z" fill="white"/>
<path d="M29.3771 42.385C29.3996 41.2105 30.1109 40.123 31.2359 39.7178C31.7856 39.521 32.3822 39.4965 32.9462 39.6474C33.5101 39.7983 34.0148 40.1175 34.393 40.5625C36.062 42.5367 34.2765 45.6278 31.7368 45.1864C31.0797 45.0663 30.4849 44.721 30.0546 44.2098C29.6243 43.6985 29.3855 43.0533 29.3791 42.385C29.3624 41.5041 27.9928 41.5041 28.0094 42.385C28.0102 43.2492 28.2768 44.0923 28.7731 44.7996C29.2694 45.5069 29.9713 46.0442 30.7835 46.3385C31.5956 46.6329 32.4786 46.67 33.3125 46.4447C34.1465 46.2195 34.8909 45.7429 35.4447 45.0797C36.5727 43.7094 36.7497 41.7145 35.8066 40.1857C35.3496 39.4536 34.6812 38.8775 33.8899 38.5335C33.0986 38.1896 32.2216 38.094 31.3748 38.2594C29.4182 38.6372 28.0486 40.4225 28.0114 42.3821C27.9908 43.2669 29.3605 43.2669 29.3771 42.385Z" fill="white"/>
<path d="M32.1653 43.6252C33.7394 43.6252 33.7414 41.1782 32.1653 41.1782C30.5893 41.1782 30.5893 43.6252 32.1653 43.6252Z" fill="white"/>
<path d="M27.5319 16.52L35.4856 19.7716L36.6303 20.2395C36.9756 20.3805 37.3797 20.0858 37.4726 19.7609C37.5851 19.3694 37.3347 19.0571 36.9942 18.9181L29.0405 15.6665L27.8958 15.1987C27.5505 15.0577 27.1465 15.3523 27.0535 15.6773C26.941 16.0688 27.1915 16.3811 27.5319 16.52Z" fill="white"/>
<path d="M27.5319 21.0226L35.4856 24.2742L36.6303 24.742C36.9756 24.883 37.3797 24.5884 37.4726 24.2634C37.5851 23.8719 37.3347 23.5596 36.9942 23.4206L29.0405 20.169L27.8958 19.7012C27.5505 19.5602 27.1465 19.8548 27.0535 20.1798C26.941 20.5713 27.1915 20.8836 27.5319 21.0226Z" fill="white"/>
<path d="M27.5319 25.5251L35.4856 28.7767L36.6303 29.2445C36.9756 29.3855 37.3797 29.0909 37.4726 28.7659C37.5851 28.3744 37.3347 28.0621 36.9942 27.9232L29.0405 24.6716L27.8958 24.2037C27.5505 24.0627 27.1465 24.3574 27.0535 24.6823C26.941 25.0738 27.1915 25.3861 27.5319 25.5251Z" fill="white"/>
<path d="M27.5319 30.0276L35.4856 33.2792L36.6303 33.7471C36.9756 33.888 37.3797 33.5934 37.4726 33.2684C37.5851 32.8769 37.3347 32.5647 36.9942 32.4257L29.0405 29.1741L27.8958 28.7062C27.5505 28.5653 27.1465 28.8599 27.0535 29.1848C26.941 29.5764 27.1915 29.8886 27.5319 30.0276Z" fill="white"/>
</g>
<defs>
<clipPath id="clip0_89_180">
<rect width="26.4205" height="42.2727" fill="white" transform="translate(11.0796 4.31824)"/>
</clipPath>
</defs>
</svg>
