<svg width="50" height="50" viewBox="0 0 50 50" fill="none" xmlns="http://www.w3.org/2000/svg">
<rect width="50" height="50" rx="5" fill="#C0C0C0"/>
<path d="M32.0868 38.4283C28.1865 41.3631 23.1513 42.4701 18.4027 41.2563C14.4876 40.2415 11.0934 37.7993 8.88697 34.4096C6.59135 30.8649 5.73353 26.5783 6.4883 22.4232C7.22983 18.4475 9.42542 14.7967 12.6538 12.3446C14.6779 10.8171 17.0336 9.7883 19.5297 9.34169C22.0259 8.89509 24.5921 9.04327 27.0203 9.77423C28.0241 10.0736 28.4534 8.50585 27.452 8.20761C22.643 6.7698 17.3502 7.43011 13.082 10.0852C9.2884 12.4601 6.50899 16.156 5.28026 20.4597C4.02762 24.9385 4.52546 29.7262 6.67281 33.8514C8.75562 37.7945 12.2299 40.8226 16.4207 42.3471C21.927 44.3408 28.2364 43.344 32.8992 39.8301C33.2473 39.5644 33.4249 39.1338 33.1904 38.7195C32.992 38.3714 32.4292 38.1648 32.0787 38.4283H32.0868Z" fill="white"/>
<path d="M28.0228 14.3929C33.2519 17.1014 35.9464 23.1868 34.2591 28.8708C33.7576 30.5437 32.906 32.0908 31.7607 33.4093C31.0795 34.1961 32.2249 35.3496 32.9095 34.5581C35.2026 31.9088 36.4814 28.518 36.3909 25.0018C36.3262 22.5072 35.5918 20.0759 34.2648 17.9626C32.9377 15.8493 31.0668 14.1318 28.8479 12.9899C27.9196 12.5106 27.098 13.9113 28.0286 14.3929H28.0228Z" fill="white"/>
<path d="M42.2025 28.4263C41.6725 31.7539 40.3159 34.8953 38.2569 37.5626C37.9854 37.9107 37.9227 38.3749 38.2569 38.7114C38.5343 38.9946 39.1366 39.0596 39.4058 38.7114C41.6629 35.845 43.1619 32.4563 43.7645 28.858C43.8353 28.4216 43.6484 27.99 43.197 27.8588C42.8094 27.7486 42.2686 27.9946 42.1979 28.4263H42.2025Z" fill="white"/>
<path d="M32.7587 8.34339C35.5716 10.041 37.9287 12.3982 39.6263 15.211C40.1659 16.1057 41.5712 15.2899 41.0293 14.3917C39.1869 11.3401 36.6296 8.78279 33.578 6.9404C32.681 6.39847 31.864 7.80262 32.7587 8.34339Z" fill="white"/>
<path d="M42.6899 14.4602L44.7219 26.3456L45.0108 28.0375C45.1872 29.0657 46.7515 28.6305 46.5774 27.6058L44.5455 15.7204L44.2565 14.0285C44.0801 13.0003 42.5158 13.4355 42.6899 14.4602Z" fill="white"/>
<path d="M40.5558 15.6078L43.3409 14.9116C44.3552 14.6586 43.9212 13.0908 42.9093 13.3449L40.1242 14.0412C39.1099 14.2942 39.5439 15.862 40.5558 15.6078Z" fill="white"/>
<path d="M43.2249 29.4173L45.6618 28.8371C46.6784 28.5945 46.2479 27.0279 45.2302 27.2704L42.7932 27.8507C41.7766 28.0932 42.2072 29.6598 43.2249 29.4173Z" fill="white"/>
<path d="M28.9674 14.0122L33.4932 8.44205C34.1466 7.63785 33.0047 6.48087 32.3444 7.29319L27.8186 12.8634C27.1653 13.6676 28.3071 14.8246 28.9674 14.0122Z" fill="white"/>
<path d="M32.2713 34.7844L38.0736 38.4979C38.9567 39.0642 39.7725 37.6577 38.8929 37.096L33.0906 33.3826C32.2075 32.8163 31.3917 34.2228 32.2713 34.7844Z" fill="white"/>
<path d="M34.4217 15.3085C36.2888 15.3085 36.2912 12.4074 34.4217 12.4074C32.5522 12.4074 32.5522 15.3085 34.4217 15.3085Z" fill="white"/>
<path d="M37.5166 33.3339C39.3826 33.3339 39.3861 30.4327 37.5166 30.4327C35.6471 30.4327 35.6459 33.3339 37.5166 33.3339Z" fill="white"/>
<path d="M28.039 25.3267C28.01 27.5745 26.6059 29.6761 24.4474 30.4153C23.3995 30.7762 22.2667 30.8102 21.199 30.5128C20.1313 30.2154 19.1792 29.6007 18.4688 28.7501C17.0217 27.0094 16.8615 24.4633 18.0231 22.5358C19.1848 20.6083 21.4964 19.572 23.6978 20.0292C24.917 20.2848 26.0122 20.9495 26.8018 21.913C27.5914 22.8765 28.028 24.081 28.039 25.3267C28.053 26.3711 29.6776 26.3711 29.6637 25.3267C29.6489 23.8857 29.1973 22.4831 28.3685 21.3041C27.5397 20.1252 26.3728 19.2254 25.0219 18.7237C22.311 17.7141 19.1105 18.5926 17.2688 20.8125C15.3796 23.0882 15.0814 26.3827 16.6167 28.9357C17.3669 30.1639 18.4723 31.1354 19.7867 31.7216C21.101 32.3078 22.5624 32.4811 23.9774 32.2187C27.2708 31.621 29.6231 28.6212 29.6637 25.3267C29.6776 24.2811 28.053 24.28 28.039 25.3267Z" fill="white"/>
</svg>
