<svg width="50" height="50" viewBox="0 0 50 50" fill="none" xmlns="http://www.w3.org/2000/svg">
<rect width="50" height="50" rx="5" fill="#C0C0C0"/>
<path d="M14.6973 33.0273L10.1563 35.6514L8.97658 36.335C8.79689 36.4385 8.60353 36.5908 8.40822 36.6631C8.09962 36.7783 7.98439 36.583 7.85158 36.3516L7.14943 35.1367L6.29884 33.665C6.18459 33.4697 5.92873 33.1768 5.90822 32.9316C5.88771 32.6729 6.15041 32.5762 6.33595 32.4688L7.31252 31.9033C8.96291 30.9502 10.5918 29.9307 12.2754 29.0381C12.5361 28.9004 12.707 28.9668 12.8613 29.2129C13.124 29.6397 13.3633 30.082 13.6133 30.5156L14.5195 32.085C14.666 32.3389 15.0567 32.7861 14.6963 33.0273C13.9697 33.5156 14.6533 34.7002 15.3867 34.208C16.1836 33.6738 16.4385 32.7432 15.9834 31.8857C15.7881 31.5254 15.5742 31.1768 15.3701 30.8232L14.3936 29.1279C14.21 28.8086 14.043 28.4443 13.7998 28.1641C13.2471 27.5225 12.3701 27.4404 11.6514 27.8252C11.3916 27.9639 11.1397 28.1182 10.8858 28.2676L7.69337 30.1074C6.93361 30.5449 6.15236 30.957 5.4131 31.4238C4.73927 31.8457 4.37501 32.6104 4.61623 33.3955C4.73048 33.7695 4.98048 34.1211 5.1758 34.4561C5.70607 35.374 6.20607 36.3164 6.76857 37.2148C7.23732 37.9629 8.13576 38.2891 8.959 37.9082C9.18459 37.8037 9.39748 37.666 9.61232 37.542L15.3867 34.208C16.1494 33.7686 15.4619 32.5869 14.6973 33.0273Z" fill="white"/>
<path d="M14.9873 36.8652L12.7695 38.1465C12.4599 38.3252 12.1386 38.5703 11.8056 38.7031C11.4482 38.8457 11.3418 38.5 11.1894 38.2363C11.0615 38.0147 10.5429 37.4072 10.6914 37.124C10.7978 36.9199 11.2109 36.7783 11.3945 36.6719C12.2295 36.1904 13.0547 35.6426 13.916 35.2168C14.291 35.0312 14.3974 35.3086 14.5713 35.6074C14.7138 35.8535 15.3632 36.6123 14.9873 36.8633C14.2607 37.3516 14.9443 38.5361 15.6777 38.0439C16.5322 37.4707 16.6718 36.5303 16.1826 35.6631C15.8818 35.1299 15.581 34.3936 15.0576 34.043C13.875 33.25 12.4336 34.4912 11.4238 35.0742C10.9941 35.3223 10.5507 35.5566 10.1298 35.8213C9.332 36.3281 9.082 37.2617 9.52829 38.0938C9.78415 38.5752 10.0488 39.1436 10.4072 39.5586C10.9804 40.2148 11.8486 40.2422 12.5703 39.8398C13.6132 39.2539 14.6406 38.6455 15.6748 38.0479C16.4394 37.6064 15.7519 36.4258 14.9873 36.8652Z" fill="white"/>
<path d="M18.1085 42.6064L16.5635 43.498C16.2706 43.665 15.9522 43.8115 15.6846 44.0068C15.6631 44.0215 15.5313 44.0713 15.5264 44.0977C15.5606 43.9307 16.0782 44.4639 16.0831 44.1953C16.0831 44.1436 15.9756 44.0088 15.9522 43.9678L15.6778 43.4922C15.6251 43.4014 15.5391 43.1533 15.4503 43.1016C15.2637 42.9854 15.42 43.665 15.2842 43.6445C15.3018 43.6445 15.337 43.6084 15.3546 43.6035C15.468 43.5544 15.5755 43.4925 15.6749 43.4189L17.628 42.2939C17.6563 42.2773 17.8506 42.1963 17.8565 42.1611C17.8223 42.3398 17.2286 41.7529 17.3126 42.0879C17.3435 42.1608 17.3832 42.2297 17.4307 42.293L17.7501 42.8467C17.794 42.9354 17.8436 43.0212 17.8985 43.1035C18.0938 43.3486 17.6055 43.0938 17.9756 42.7188C17.3536 43.3438 18.3204 44.3105 18.9424 43.6855C19.4708 43.1543 19.1963 42.6162 18.8858 42.0791C18.6651 41.6953 18.4512 41.1377 18.0264 40.9434C17.5635 40.7314 17.1837 40.9717 16.7979 41.1943L15.462 41.9648C15.1749 42.1309 14.8663 42.2803 14.5928 42.4668C14.0245 42.8574 14.0674 43.4355 14.3741 43.9668C14.5743 44.3135 14.751 44.7012 14.9952 45.0195C15.3858 45.5234 15.9395 45.4463 16.4239 45.166L18.8038 43.793C19.5606 43.3467 18.8731 42.165 18.1085 42.6064Z" fill="white"/>
<path d="M14.1103 38.166L16.4609 42.2373L16.706 41.3018L15.0722 42.2451L16.0078 42.4902L13.6572 38.4189L13.4121 39.3555L15.0449 38.4121C15.8066 37.9727 15.1191 36.79 14.3554 37.2314L12.7216 38.1748C12.5674 38.2684 12.4555 38.4184 12.4098 38.593C12.364 38.7676 12.388 38.9531 12.4765 39.1104L14.8271 43.1816C14.9208 43.3359 15.0707 43.4478 15.2453 43.4935C15.4199 43.5392 15.6054 43.5153 15.7627 43.4268L17.3964 42.4805C17.5507 42.3868 17.6626 42.2369 17.7083 42.0623C17.754 41.8877 17.7301 41.7022 17.6416 41.5449L15.291 37.4736C14.8506 36.7187 13.6718 37.4023 14.1103 38.166Z" fill="white"/>
<path d="M35.0175 18.917L28.0947 22.9131L17.0595 29.2842L14.5254 30.749L15.4609 30.9951L14.5175 29.3613L14.2724 30.2969L21.1914 26.2979L32.2265 19.9268L34.7656 18.4619L33.831 18.2168L34.7734 19.8496C35.2138 20.6113 36.3955 19.9238 35.9541 19.1602L35.0117 17.5264C34.9182 17.3719 34.7682 17.2599 34.5936 17.2141C34.4189 17.1684 34.2333 17.1925 34.0761 17.2812L27.1484 21.2803L16.1132 27.6504L13.5791 29.1152C13.4248 29.2089 13.313 29.3588 13.2672 29.5334C13.2215 29.708 13.2454 29.8935 13.3339 30.0508L14.2773 31.6836C14.3708 31.8381 14.5207 31.9501 14.6954 31.9958C14.87 32.0416 15.0557 32.0175 15.2129 31.9287L22.1377 27.9297L33.1728 21.5586L35.707 20.0937C36.4687 19.6572 35.7812 18.4756 35.0175 18.917Z" fill="white"/>
<path d="M34.6816 16.1055L39.1445 13.5283C39.6914 13.2129 40.252 12.793 40.8369 12.5518C41.1855 12.4072 41.3486 12.6357 41.502 12.9023L42.207 14.123L42.998 15.4902C43.1143 15.6855 43.3701 15.9932 43.3711 16.2412C43.3711 16.5166 43.1133 16.6201 42.9121 16.7363L41.9424 17.2959L39.0957 18.9453C38.4287 19.3301 37.7705 19.7705 37.0791 20.1094C36.7861 20.2529 36.5801 20.1836 36.4111 19.9062C36.1611 19.4971 35.9307 19.0742 35.6904 18.6582L34.7812 17.083C34.6094 16.79 34.2725 16.3789 34.6836 16.1064C35.4131 15.6182 34.7295 14.4375 33.9932 14.9258C33.1641 15.4766 32.8896 16.4561 33.3564 17.3457C33.5371 17.6904 33.7471 18.0225 33.9424 18.3594L34.8701 19.9648C35.0566 20.2891 35.2256 20.6484 35.4697 20.9414C36.042 21.6143 36.9648 21.7227 37.7236 21.3174C37.9707 21.1855 38.2119 21.0361 38.4521 20.8965L41.5713 19.0957C42.3203 18.6631 43.0908 18.2539 43.8242 17.7949C44.4736 17.3887 44.8633 16.6738 44.7031 15.8994C44.6162 15.4795 44.3545 15.1055 44.1426 14.7402C43.623 13.8398 43.1328 12.916 42.5801 12.0352C42.124 11.3066 41.2695 10.9424 40.4385 11.2402C40.1694 11.3543 39.9109 11.4918 39.666 11.6514L33.9922 14.9268C33.2295 15.3643 33.917 16.5469 34.6816 16.1055Z" fill="white"/>
<path d="M34.375 12.2793L36.542 11.0283C36.8409 10.8555 37.1436 10.6328 37.462 10.4971C37.8526 10.3301 37.9795 10.6924 38.1456 10.9756C38.2891 11.2246 38.7832 11.7871 38.5723 12.0928C38.4385 12.2881 38.0752 12.4131 37.8829 12.5234C37.0684 12.9941 36.2666 13.5264 35.4239 13.9434C35.0147 14.1455 34.879 13.8027 34.6983 13.4902C34.5362 13.209 33.961 12.5557 34.378 12.2793C35.1075 11.791 34.4239 10.6104 33.6875 11.0986C32.8321 11.666 32.6446 12.6406 33.1368 13.5186C33.4297 14.041 33.7168 14.7227 34.2178 15.0811C35.4112 15.9258 36.8204 14.7197 37.8497 14.126C38.2754 13.8799 38.7139 13.6484 39.1309 13.3857C39.5204 13.1565 39.8048 12.7841 39.9236 12.3481C40.0424 11.912 39.986 11.4469 39.7666 11.0518C39.5293 10.5967 39.2715 10.0684 38.9356 9.67578C38.3672 9.01074 37.4707 8.93945 36.7305 9.3457C35.7061 9.91113 34.7012 10.5176 33.6875 11.1035C32.919 11.5381 33.6075 12.7207 34.375 12.2793Z" fill="white"/>
<path d="M31.083 6.63477L32.8271 5.62793C33.1288 5.45313 33.496 5.30176 33.7695 5.08399C33.79 5.06738 33.8574 5.04981 33.8671 5.02539C33.9482 4.875 33.1249 4.93945 33.1269 4.82031C33.1269 4.91797 33.2997 5.11914 33.3476 5.20215L33.6767 5.76172C33.7353 5.85938 33.83 6.12793 33.9277 6.19629C34.0771 6.30078 34.0253 5.46289 34.1406 5.46485C34.1152 5.46485 34.082 5.50391 34.0576 5.5127C33.9258 5.57425 33.7997 5.64712 33.6806 5.73047L31.5322 6.97266C31.4808 6.9926 31.4327 7.02027 31.3896 7.05469C31.1845 7.3086 32.1435 7.0625 32.1132 7.28125C32.1249 7.19629 31.9306 6.96582 31.8876 6.89063L31.497 6.21289C31.4501 6.13282 31.4081 6.04492 31.3554 5.96875C31.1601 5.68262 31.6025 6.03223 31.331 6.38575C31.5576 6.09278 31.374 5.62305 31.0859 5.4502C30.7363 5.24121 30.374 5.4043 30.1503 5.69532C29.7753 6.1836 30.2255 6.74707 30.4746 7.17774C30.6914 7.55372 30.9062 8.13086 31.333 8.31055C31.7597 8.49024 32.1474 8.19629 32.5048 7.99219L33.9384 7.16407C34.2363 6.99219 34.5673 6.84082 34.8466 6.63965C35.4325 6.22266 35.2197 5.68653 34.9296 5.18457C34.7265 4.83301 34.5478 4.44043 34.3095 4.11035C33.9189 3.56836 33.4042 3.71973 32.9238 3.99219L30.3925 5.4541C29.6308 5.89453 30.3183 7.07618 31.083 6.63477Z" fill="white"/>
<path d="M35.1963 11.0088L32.8458 6.93359L32.6006 7.86914L34.2344 6.93359L33.3008 6.68457L35.6514 10.7559L35.8965 9.82031L34.2637 10.7637C33.502 11.2031 34.1895 12.3857 34.9532 11.9443L36.587 11.001C36.7414 10.9075 36.8534 10.7576 36.8992 10.5829C36.945 10.4082 36.9209 10.2226 36.8321 10.0654L34.4796 5.99414C34.3859 5.83986 34.236 5.72803 34.0614 5.68228C33.8868 5.63654 33.7013 5.66048 33.544 5.74902L31.9112 6.69238C31.7567 6.78585 31.6447 6.93581 31.599 7.11046C31.5532 7.28512 31.5773 7.47073 31.6661 7.62793L34.0167 11.6992C34.4561 12.4609 35.6378 11.7734 35.1963 11.0088Z" fill="white"/>
</svg>
