<svg width="50" height="50" viewBox="0 0 50 50" fill="none" xmlns="http://www.w3.org/2000/svg">
<rect width="50" height="50" rx="5" fill="#C0C0C0"/>
<path d="M22.8887 25.2803C24.0606 27.874 24.9004 30.6963 25.0557 33.5498C25.1592 35.4531 25.0332 37.7021 23.8272 39.2812C21.5635 42.2471 17.5938 39.4385 15.6729 37.4941C13.9356 35.7363 12.5577 33.6406 11.459 31.4336C10.2022 28.9082 9.26761 26.1377 8.95023 23.3281C8.62113 20.418 8.95023 14.7754 13.1328 15.2734C15.0723 15.5049 16.8086 16.8838 18.1475 18.2178C20.169 20.2334 21.7032 22.6982 22.8887 25.2832C23.2549 26.0811 24.4336 25.3877 24.0694 24.5928C22.9102 22.0664 21.4073 19.665 19.4922 17.6406C18.0518 16.1172 16.2784 14.6846 14.2246 14.1094C12.5274 13.6338 10.7002 13.9268 9.42972 15.2109C7.87992 16.7734 7.4766 19.1904 7.46781 21.3047C7.45511 24.3145 8.22269 27.332 9.36331 30.0996C10.4561 32.752 11.9024 35.2598 13.7686 37.4434C16 40.0498 20.4541 43.6826 23.9522 41.0566C25.669 39.7686 26.2608 37.5273 26.4102 35.4844C26.6221 32.5937 25.9912 29.625 25.0186 26.9199C24.7354 26.1309 24.4141 25.3574 24.0694 24.5918C23.708 23.7891 22.5293 24.4834 22.8887 25.2803Z" fill="white"/>
<path d="M20.4346 26.5029C21.1543 28.1055 21.6709 29.8545 21.7588 31.6162C21.8193 32.8174 21.7402 34.2578 20.9648 35.2481C19.5537 37.0498 17.0957 35.3115 15.9033 34.1182C13.6084 31.8213 12.0283 28.4727 11.6953 25.2451C11.5068 23.417 11.7441 19.8984 14.3564 20.2539C15.5762 20.4199 16.6621 21.29 17.5029 22.1309C18.7539 23.3818 19.6982 24.9033 20.4326 26.5029C20.8008 27.3008 21.9795 26.6074 21.6133 25.8125C20.8477 24.1523 19.8457 22.5732 18.5625 21.2598C17.5986 20.2715 16.4033 19.3545 15.0469 19.0059C13.8574 18.7012 12.6055 18.9238 11.7012 19.793C10.627 20.834 10.3018 22.459 10.2705 23.8945C10.1904 27.6807 11.9092 31.6553 14.3721 34.4785C15.9346 36.2676 18.9219 38.502 21.3057 36.7813C22.6729 35.7969 23.0908 34.0127 23.1348 32.418C23.1992 30.1348 22.541 27.874 21.6143 25.8086C21.2559 25.0117 20.0772 25.7061 20.4346 26.5029Z" fill="white"/>
<path d="M17.8282 27.583C18.169 28.3179 18.3902 29.1025 18.4835 29.9072C18.5284 30.3789 18.5694 31.0146 18.295 31.4336C18.1182 31.7031 17.9219 31.6836 17.6417 31.5762C17.1778 31.3994 16.792 31.0146 16.4698 30.6514C15.4835 29.5469 14.8096 28.0449 14.5792 26.5859C14.4971 26.0586 14.4463 25.4141 14.6622 24.9082C14.7921 24.6016 14.9776 24.5352 15.21 24.5811C15.7266 24.6787 16.1739 25.1357 16.5137 25.5068C17.0694 26.1152 17.4835 26.8398 17.8301 27.583C18.2003 28.3799 19.3799 27.6865 19.0098 26.8926C18.3546 25.4844 17.2315 23.7022 15.6172 23.2734C14.959 23.0986 14.2686 23.248 13.7969 23.7549C13.2823 24.3086 13.1475 25.1377 13.1534 25.8652C13.171 27.8682 14.0909 29.9424 15.3663 31.46C16.1788 32.4268 17.7012 33.5996 18.9649 32.6885C19.6915 32.1641 19.8829 31.1885 19.876 30.3447C19.8653 29.1426 19.4932 27.9805 19.0098 26.8926C18.6524 26.0898 17.4737 26.7852 17.8282 27.583Z" fill="white"/>
<path d="M28.2715 9.61914C28.4668 9.63867 28.1836 9.60156 28.3037 9.61914C28.3565 9.62793 28.4102 9.63672 28.4619 9.64843C28.5596 9.67089 28.6572 9.69433 28.7598 9.72265C28.985 9.78724 29.2048 9.86953 29.417 9.96875C29.9485 10.2242 30.4525 10.5334 30.9209 10.8916C32.2012 11.8594 33.2783 13.1143 34.1836 14.4307C35.4297 16.2441 36.377 18.2393 37.1719 20.29C37.8662 22.0791 38.4414 23.9238 38.7734 25.8164C39.0264 27.2549 39.1367 28.8262 38.9404 30.2373C38.8897 30.6055 39.0303 30.9668 39.418 31.0781C39.7363 31.1699 40.208 30.9658 40.2588 30.6006C40.7344 27.1777 39.8877 23.6875 38.7041 20.4893C37.2734 16.625 35.2949 12.6318 32 10.0127C30.916 9.15136 29.6758 8.39355 28.2715 8.25488C27.3926 8.16601 27.4033 9.53418 28.2715 9.62207V9.61914Z" fill="white"/>
<path d="M25.8789 38.2363L38.1152 31.9863L39.8437 31.1074C40.625 30.708 39.9414 29.5273 39.1543 29.9277L26.9179 36.1777L25.1894 37.0566C24.4082 37.456 25.0918 38.6367 25.8789 38.2363Z" fill="white"/>
<path d="M14.1953 15.3565L26.333 10.3985L28.0625 9.6924C28.4073 9.55177 28.6426 9.23927 28.5401 8.85158C28.4541 8.52638 28.0401 8.23439 27.6993 8.37404L15.5616 13.332L13.8321 14.0381C13.4873 14.1787 13.252 14.4912 13.3545 14.8789C13.4405 15.2041 13.8545 15.4961 14.1953 15.3565Z" fill="white"/>
<path d="M33.252 9.61913C33.3867 9.63281 33.2861 9.61913 33.2578 9.61913C33.3008 9.62597 33.3438 9.63378 33.3857 9.64257C33.4629 9.65917 33.5381 9.67675 33.6133 9.69726C33.6885 9.71777 33.7695 9.74413 33.8467 9.7705C33.8916 9.78613 34.0693 9.85839 34.0244 9.83886C34.4057 10.0109 34.7661 10.2258 35.0986 10.4795C35.9609 11.1279 36.6934 11.9726 37.3232 12.8428C39.3068 15.5879 40.6758 18.7282 41.3369 22.0498C41.6729 23.7793 41.7979 25.5371 41.8486 27.2959C41.874 28.1748 43.2412 28.1748 43.2158 27.2959C43.1806 25.6166 43.0295 23.9417 42.7637 22.2832C42.4253 20.3445 41.8439 18.4563 41.0332 16.6631C39.876 14.0566 38.3564 11.3115 36.0742 9.51855C35.2432 8.86523 34.3164 8.3623 33.2549 8.24902C32.3809 8.15917 32.3867 9.52734 33.2549 9.6162L33.252 9.61913Z" fill="white"/>
<path d="M42.3994 27.8809C43.2783 27.8809 43.2783 26.5137 42.3994 26.5137C41.5205 26.5137 41.5205 27.8809 42.3994 27.8809Z" fill="white"/>
<path d="M30.8975 10.5684L33.0459 9.68947C33.3877 9.54982 33.6318 9.23439 33.5235 8.84865C33.4346 8.52541 33.0264 8.23048 32.6826 8.37111L30.5342 9.25001C30.1924 9.38966 29.9483 9.70509 30.0567 10.0918C30.1455 10.4151 30.5537 10.709 30.8975 10.5684Z" fill="white"/>
<path d="M42.4316 27.3926C43.3105 27.3926 43.3105 26.0254 42.4316 26.0254C41.5527 26.0254 41.5527 27.3926 42.4316 27.3926Z" fill="white"/>
<path d="M40.1367 29.4473L42.6758 28.1777C43.4629 27.7871 42.7734 26.6045 41.9863 26.9981L39.4473 28.2676C38.6602 28.6582 39.3496 29.8408 40.1367 29.4473Z" fill="white"/>
</svg>
