<svg width="50" height="50" viewBox="0 0 50 50" fill="none" xmlns="http://www.w3.org/2000/svg">
<rect width="50" height="50" rx="5" fill="#C0C0C0"/>
<path d="M43.6035 35.6934H7.54785C7.06934 35.6934 6.54687 35.6328 6.07129 35.6934C6.0495 35.6948 6.02764 35.6948 6.00586 35.6934L6.68945 36.377V32.373L6.00586 33.0566H42.0615C42.54 33.0566 43.0625 33.1172 43.5381 33.0566C43.5599 33.0552 43.5817 33.0552 43.6035 33.0566L42.9199 32.373V36.377C42.9199 37.2559 44.2871 37.2559 44.2871 36.377V32.373C44.2843 32.1926 44.2114 32.0203 44.0838 31.8927C43.9562 31.7651 43.784 31.6922 43.6035 31.6895H10.6533C9.13086 31.6895 7.59277 31.624 6.07129 31.6895H6.00586C5.82542 31.6922 5.65315 31.7651 5.52555 31.8927C5.39795 32.0203 5.32504 32.1926 5.32227 32.373V36.377C5.32504 36.5574 5.39795 36.7297 5.52555 36.8573C5.65315 36.9849 5.82542 37.0578 6.00586 37.0606H38.9561C40.4785 37.0606 42.0166 37.126 43.5381 37.0606H43.6035C44.4834 37.0606 44.4844 35.6934 43.6035 35.6934Z" fill="white"/>
<path d="M36.2793 36.5723V41.748L36.9629 41.0645H13.1348L13.8184 41.748V36.5723C13.8184 35.6934 12.4512 35.6934 12.4512 36.5723V41.748C12.4539 41.9285 12.5269 42.1008 12.6545 42.2284C12.7821 42.356 12.9543 42.4289 13.1348 42.4316H36.9629C37.1433 42.4289 37.3156 42.356 37.4432 42.2284C37.5708 42.1008 37.6437 41.9285 37.6465 41.748V36.5723C37.6465 35.6934 36.2793 35.6934 36.2793 36.5723Z" fill="white"/>
<path d="M13.8184 32.373V28.7598L13.1348 29.4434H36.9629L36.2793 28.7598V32.373C36.2793 33.252 37.6465 33.252 37.6465 32.373V28.7598C37.6437 28.5793 37.5708 28.4071 37.4432 28.2795C37.3156 28.1519 37.1433 28.0789 36.9629 28.0762H13.1348C12.9543 28.0789 12.7821 28.1519 12.6545 28.2795C12.5269 28.4071 12.4539 28.5793 12.4512 28.7598V32.373C12.4512 33.252 13.8184 33.252 13.8184 32.373Z" fill="white"/>
<path d="M13.7246 29.1016L19.3672 18.416L20.1699 16.8945L19.584 17.2334H30.5215L29.9355 16.8945L35.5771 27.5811L36.373 29.1016C36.7832 29.8828 37.9639 29.1904 37.5527 28.4121L31.9111 17.7285L31.1074 16.2109C31.0476 16.1085 30.9621 16.0233 30.8593 15.9639C30.7566 15.9045 30.6402 15.8728 30.5215 15.8721H19.584C19.4653 15.8728 19.3489 15.9045 19.2461 15.9639C19.1434 16.0233 19.0579 16.1085 18.998 16.2109L13.3477 26.8936L12.5449 28.418C12.1338 29.1992 13.3135 29.8828 13.7246 29.1074V29.1016Z" fill="white"/>
<path d="M24.0234 16.5527V6.54297L23.3398 7.22656H26.7578L26.0742 6.54297V16.5527C26.0742 17.4316 27.4414 17.4316 27.4414 16.5527V6.54297C27.4386 6.36253 27.3657 6.19026 27.2381 6.06266C27.1105 5.93506 26.9382 5.86215 26.7578 5.85938H23.3398C23.1594 5.86215 22.9871 5.93506 22.8595 6.06266C22.7319 6.19026 22.659 6.36253 22.6562 6.54297V16.5527C22.6562 17.4316 24.0234 17.4316 24.0234 16.5527Z" fill="white"/>
</svg>
