<svg width="19" height="18" viewBox="0 0 19 18" fill="none" xmlns="http://www.w3.org/2000/svg">
<path d="M7.17814 12.9938C7.24576 13.0658 7.29828 13.1507 7.33261 13.2433C7.36693 13.336 7.38236 13.4346 7.378 13.5333C7.37363 13.632 7.34955 13.7289 7.30717 13.8182C7.2648 13.9074 7.20499 13.9873 7.13127 14.0531L3.88752 17.0531C3.74594 17.1803 3.56221 17.2505 3.37189 17.25C3.18447 17.2499 3.00386 17.1797 2.86564 17.0531L1.24377 15.5531C1.16866 15.4873 1.10745 15.4072 1.06374 15.3174C1.02002 15.2276 0.994667 15.13 0.989173 15.0303C0.983679 14.9306 0.998152 14.8308 1.03174 14.7368C1.06533 14.6427 1.11736 14.5563 1.18478 14.4827C1.2522 14.409 1.33365 14.3496 1.42436 14.3078C1.51506 14.266 1.61319 14.2428 1.713 14.2395C1.8128 14.2361 1.91226 14.2528 2.00555 14.2884C2.09884 14.324 2.18408 14.3779 2.25627 14.4469L3.37189 15.4781L6.11877 12.9469C6.19082 12.8793 6.27568 12.8267 6.36835 12.7924C6.46101 12.7581 6.55961 12.7427 6.65833 12.747C6.75706 12.7514 6.8539 12.7755 6.94318 12.8179C7.03245 12.8602 7.11234 12.92 7.17814 12.9938ZM10 3.75001H18.25C18.4489 3.75001 18.6397 3.67099 18.7803 3.53034C18.921 3.38968 19 3.19892 19 3.00001C19 2.8011 18.921 2.61033 18.7803 2.46968C18.6397 2.32903 18.4489 2.25001 18.25 2.25001H10C9.8011 2.25001 9.61034 2.32903 9.46969 2.46968C9.32903 2.61033 9.25002 2.8011 9.25002 3.00001C9.25002 3.19892 9.32903 3.38968 9.46969 3.53034C9.61034 3.67099 9.8011 3.75001 10 3.75001ZM6.11877 6.94688L3.37189 9.47813L2.25627 8.44688C2.18408 8.37788 2.09884 8.32399 2.00555 8.28838C1.91226 8.25276 1.8128 8.23613 1.713 8.23946C1.61319 8.2428 1.51506 8.26603 1.42436 8.30779C1.33365 8.34956 1.2522 8.40901 1.18478 8.48268C1.11736 8.55634 1.06533 8.64272 1.03174 8.73676C0.998152 8.8308 0.983679 8.9306 0.989173 9.03031C0.994667 9.13001 1.02002 9.22762 1.06374 9.3174C1.10745 9.40718 1.16866 9.48732 1.24377 9.55313L2.86564 11.0531C3.00386 11.1797 3.18447 11.2499 3.37189 11.25C3.56221 11.2505 3.74594 11.1803 3.88752 11.0531L7.13127 8.05313C7.20637 7.98732 7.26758 7.90718 7.3113 7.8174C7.35501 7.72762 7.38036 7.63001 7.38586 7.53031C7.39135 7.4306 7.37688 7.3308 7.34329 7.23676C7.3097 7.14272 7.25767 7.05634 7.19025 6.98268C7.12283 6.90901 7.04138 6.84956 6.95067 6.80779C6.85997 6.76603 6.76184 6.7428 6.66203 6.73946C6.56223 6.73613 6.46277 6.75276 6.36948 6.78838C6.27619 6.82399 6.19095 6.87788 6.11877 6.94688ZM18.25 8.25001H10C9.8011 8.25001 9.61034 8.32903 9.46969 8.46968C9.32903 8.61033 9.25002 8.8011 9.25002 9.00001C9.25002 9.19892 9.32903 9.38969 9.46969 9.53034C9.61034 9.67099 9.8011 9.75001 10 9.75001H18.25C18.4489 9.75001 18.6397 9.67099 18.7803 9.53034C18.921 9.38969 19 9.19892 19 9.00001C19 8.8011 18.921 8.61033 18.7803 8.46968C18.6397 8.32903 18.4489 8.25001 18.25 8.25001ZM18.25 14.25H10C9.8011 14.25 9.61034 14.329 9.46969 14.4697C9.32903 14.6103 9.25002 14.8011 9.25002 15C9.25002 15.1989 9.32903 15.3897 9.46969 15.5303C9.61034 15.671 9.8011 15.75 10 15.75H18.25C18.4489 15.75 18.6397 15.671 18.7803 15.5303C18.921 15.3897 19 15.1989 19 15C19 14.8011 18.921 14.6103 18.7803 14.4697C18.6397 14.329 18.4489 14.25 18.25 14.25ZM6.11877 0.946882L3.37189 3.47813L2.25627 2.44688C2.10878 2.31765 1.91653 2.25132 1.72073 2.26211C1.52493 2.2729 1.34114 2.35994 1.20874 2.5046C1.07634 2.64926 1.00586 2.84002 1.01241 3.03601C1.01896 3.232 1.10201 3.41763 1.24377 3.55313L2.86564 5.05313C3.00386 5.17971 3.18447 5.24994 3.37189 5.25001C3.56221 5.25047 3.74594 5.18032 3.88752 5.05313L7.13127 2.05313C7.20637 1.98732 7.26758 1.90718 7.3113 1.8174C7.35501 1.72762 7.38036 1.63001 7.38586 1.53031C7.39135 1.4306 7.37688 1.3308 7.34329 1.23676C7.3097 1.14272 7.25767 1.05634 7.19025 0.982675C7.12283 0.909013 7.04138 0.849555 6.95067 0.807791C6.85997 0.766027 6.76184 0.742796 6.66203 0.739462C6.56223 0.736128 6.46277 0.752758 6.36948 0.788376C6.27619 0.823994 6.19095 0.877883 6.11877 0.946882Z" fill="#0FA958"/>
</svg>
